<?xml version="1.0" encoding="UTF-8" standalone="no"?>
<!-- Created with Inkscape (http://www.inkscape.org/) -->

<svg
   xmlns:dc="http://purl.org/dc/elements/1.1/"
   xmlns:cc="http://creativecommons.org/ns#"
   xmlns:rdf="http://www.w3.org/1999/02/22-rdf-syntax-ns#"
   xmlns:svg="http://www.w3.org/2000/svg"
   xmlns="http://www.w3.org/2000/svg"
   xmlns:sodipodi="http://sodipodi.sourceforge.net/DTD/sodipodi-0.dtd"
   xmlns:inkscape="http://www.inkscape.org/namespaces/inkscape"
   sodipodi:docname="cat.svg"
   sodipodi:version="0.32"
   id="svg2"
   height="297mm"
   width="210mm"
   version="1.1"
   inkscape:export-filename="/home/bcrowell/Documents/blog/free_will/cat.png"
   inkscape:export-xdpi="103.83"
   inkscape:export-ydpi="103.83"
   inkscape:version="0.92.5 (2060ec1f9f, 2020-04-08)">
  <defs
     id="defs3" />
  <sodipodi:namedview
     inkscape:window-y="0"
     inkscape:window-x="0"
     inkscape:window-height="998"
     inkscape:window-width="1280"
     inkscape:current-layer="layer1"
     inkscape:document-units="px"
     inkscape:cy="411.60019"
     inkscape:cx="409.99867"
     inkscape:zoom="1.3743309"
     inkscape:pageshadow="2"
     inkscape:pageopacity="0.0"
     borderopacity="1.0"
     bordercolor="#666666"
     pagecolor="#ffffff"
     id="base"
     showgrid="false"
     inkscape:window-maximized="1" />
  <metadata
     id="metadata4">
    <rdf:RDF>
      <cc:Work
         rdf:about="">
        <dc:format>image/svg+xml</dc:format>
        <dc:type
           rdf:resource="http://purl.org/dc/dcmitype/StillImage" />
      </cc:Work>
    </rdf:RDF>
  </metadata>
  <g
     id="layer1"
     inkscape:groupmode="layer"
     inkscape:label="Layer 1">
    <rect
       y="591.76141"
       x="246.2012"
       height="257.60681"
       width="436.81155"
       id="rect2168"
       style="fill:#bbbbbb;fill-opacity:0.75;fill-rule:evenodd;stroke:#000000;stroke-width:2.18802971pt;stroke-linecap:butt;stroke-linejoin:miter;stroke-opacity:1"
       inkscape:export-xdpi="103.83"
       inkscape:export-ydpi="103.83" />
    <path
       id="path2999"
       d="m 469.1935,683.53238 c -13.26349,0 -24.01592,9.19931 -24.42988,20.63997 h -0.0885 v 68.25496 3.70398 h 0.44256 c 2.02596,9.9842 12.00985,17.57466 24.07585,17.57464 12.06597,0 22.02038,-7.59044 24.04631,-17.57464 h 0.44259 v -3.70398 -68.25496 h -0.0885 C 493.17991,692.73169 482.45696,683.5324 469.1935,683.53238 Z"
       style="fill:#e7e7e7;fill-opacity:1;fill-rule:evenodd;stroke:#000000;stroke-width:1.91452599;stroke-linecap:butt;stroke-linejoin:miter;stroke-miterlimit:4;stroke-opacity:1"
       inkscape:connector-curvature="0"
       inkscape:export-xdpi="103.83"
       inkscape:export-ydpi="103.83" />
    <path
       id="path3022"
       d="m 469.76932,716.468 c -5.74593,0 -10.40737,4.67294 -10.40737,10.41884 0,4.0945 2.39519,7.59373 5.83548,9.29311 v 5.27262 h 9.15525 v -5.27262 c 3.44029,-1.69938 5.83548,-5.19861 5.83548,-9.29311 0,-5.7459 -4.67297,-10.41884 -10.41884,-10.41884 z"
       style="fill:#878787;fill-opacity:1;fill-rule:evenodd;stroke:#000000;stroke-width:2.08733678;stroke-linecap:butt;stroke-linejoin:miter;stroke-miterlimit:4;stroke-opacity:1"
       inkscape:connector-curvature="0"
       inkscape:export-xdpi="103.83"
       inkscape:export-ydpi="103.83" />
    <path
       id="rect3027"
       d="m 456.02894,738.59835 c -1.15004,0.0979 -2.23171,0.91578 -2.6857,2.16301 -0.60528,1.66305 0.12853,3.46221 1.64036,4.01248 1.053,0.38326 2.18381,0.0206 2.99126,-0.77193 l 7.53443,2.74197 -7.53443,2.742 c -0.80745,-0.7925 -1.93829,-1.15519 -2.99126,-0.77194 -1.51183,0.55025 -2.24564,2.3575 -1.64036,4.0205 0.6053,1.663 2.32374,2.55247 3.83557,2.00222 1.05646,-0.38454 1.70348,-1.37804 1.80923,-2.50881 l 10.79103,-3.93204 10.79103,3.93204 c 0.10816,1.12752 0.75524,2.13321 1.80926,2.51685 1.5118,0.55027 3.2222,-0.36331 3.82751,-2.02634 0.60528,-1.663 -0.12856,-3.44613 -1.64036,-3.99638 -1.05622,-0.38442 -2.19152,-0.0339 -2.99933,0.7639 l -7.52638,-2.742 7.52638,-2.74197 c 0.80781,0.79779 1.94311,1.15636 2.99933,0.77193 1.5118,-0.55027 2.24564,-2.34142 1.64036,-4.00442 -0.60531,-1.663 -2.31571,-2.56857 -3.82751,-2.0183 -1.05402,0.38364 -1.7011,1.38129 -1.80926,2.50879 l -10.79103,3.93207 -10.79103,-3.93207 c -0.10575,-1.13074 -0.75277,-2.12426 -1.80923,-2.50879 -0.37796,-0.13755 -0.76654,-0.1854 -1.14987,-0.15277 z"
       style="fill:#878787;fill-opacity:1;fill-rule:evenodd;stroke:#000000;stroke-width:2.08733678;stroke-linecap:butt;stroke-linejoin:miter;stroke-miterlimit:4;stroke-opacity:1"
       inkscape:connector-curvature="0"
       inkscape:export-xdpi="103.83"
       inkscape:export-ydpi="103.83" />
    <path
       style="fill:none;fill-opacity:0.75;fill-rule:evenodd;stroke:#000000;stroke-width:2.08733678;stroke-linecap:butt;stroke-linejoin:miter;stroke-miterlimit:4;stroke-dasharray:none;stroke-opacity:1"
       d="m 316.77817,706.30663 c 46.3258,2.4382 51.2022,24.382 41.4494,26.8202 -9.7528,2.4382 -2.4382,14.62921 17.0674,12.19101 19.5056,-2.4382 19.5056,-2.4382 19.5056,-2.4382"
       id="path2105"
       inkscape:connector-curvature="0"
       inkscape:export-xdpi="103.83"
       inkscape:export-ydpi="103.83" />
    <rect
       style="fill:#ffffff;fill-opacity:1;fill-rule:evenodd;stroke:#000000;stroke-width:2.08733678;stroke-linecap:butt;stroke-linejoin:miter;stroke-miterlimit:4;stroke-dasharray:none;stroke-opacity:1"
       id="rect2101"
       width="51.202194"
       height="46.325794"
       x="370.41861"
       y="708.74487"
       inkscape:export-xdpi="103.83"
       inkscape:export-ydpi="103.83" />
    <path
       style="fill:#ffffff;fill-opacity:1;fill-rule:evenodd;stroke:#000000;stroke-width:2.08733678;stroke-linecap:butt;stroke-linejoin:miter;stroke-miterlimit:4;stroke-dasharray:none;stroke-opacity:1"
       d="m 414.4948,655.38461 -10.97715,19.01296 12.6538,7.30568 -20.76154,35.96007 c -4.20046,-0.1271 -8.35211,1.8677 -10.59914,5.75966 -3.25479,5.63748 -1.32626,12.835 4.31125,16.08979 5.6375,3.25482 12.86727,1.34487 16.12206,-4.29261 2.24703,-3.89197 1.89874,-8.48482 -0.31152,-12.05894 l 20.76153,-35.96007 12.65382,7.30568 10.97715,-19.01296 z"
       id="rect1334"
       inkscape:connector-curvature="0"
       inkscape:export-xdpi="103.83"
       inkscape:export-ydpi="103.83" />
    <path
       id="path2930"
       d="m 651.65787,628.79296 c -6.15273,2.46105 -11.07689,10.66665 -11.07689,10.66665 -2e-5,2e-5 -2.4631,1.25164 -11.07691,0.82053 -9.02693,0.80831 -11.07689,0.8205 -11.07689,0.8205 2e-5,-7e-5 -12.30789,-9.84567 -13.53844,-7.38459 -1.23053,2.46105 2.46153,15.99995 2.46153,15.99995 2e-5,0 -2.46132,7.38504 -1.23077,9.84614 1.23053,2.46101 2.46153,9.84682 2.46153,13.53845 0,0.82035 0,0.32424 0,0.8205 l -4.5128,3.14529 0.82051,-1.50426 c -6.15271,2.461 -13.53866,9.84657 -14.76921,12.30765 -1.23058,2.46103 -3.6923,4.92309 -3.6923,4.92309 -2e-5,-3e-5 -6.15452,-1.23053 -9.84612,0 -3.69165,1.23052 -11.07691,6.15382 -11.07691,6.15382 0,7e-5 -9.84679,6.7e-4 -13.53844,3.6923 -3.69161,3.69167 -13.54048,11.01348 -24.61534,38.0854 -11.07488,27.07193 -9.84612,39.38521 -9.84612,43.07684 -2e-5,3.69163 -1.23146,11.07779 -4.92308,15.99997 -3.69161,4.92216 -6.15743,9.84567 -25.8461,7.38459 -19.68867,-2.4611 -23.38457,2.46153 -23.38457,2.46153 3e-5,5e-5 11.07825,8.61539 18.46151,8.61539 7.38321,-5e-5 29.53932,1.23031 34.46145,-1.23077 3.95728,-1.9786 11.64977,-4.77249 15.24784,-8.34188 0.0266,0.0177 -0.0197,0.0325 6.90599,4.64956 7.38323,4.92218 25.84721,-1.23141 31.99992,-4.92306 6.1527,-3.69163 16.0009,-14.77143 20.92303,-27.07686 2.60772,-6.51929 1.89791,-12.90337 -1.16237,-18.32477 l 1.84614,-0.2735 c 5.3233,7.87799 9.16238,13.73461 9.16238,19.82903 0,7.38321 -3.6912,14.77033 2.46153,20.92304 6.15268,6.1527 3.6932,4.9233 8.61536,6.15382 4.75035,1.18766 9.31518,-2.08616 9.64101,-2.32476 l 0.20514,2.32476 c 4.92215,1.2306 9.84545,-6.9e-4 6.15382,-3.69229 -3.07637,-3.0764 -5.95463,-5.21386 -7.17946,-6.15383 l 0.20511,1.77777 -1.23077,-2.66666 c 0.0538,0.0406 0.84985,0.75397 1.02566,0.88889 l -4.17095,-41.02557 c -0.34552,1.41274 -0.40308,2.92979 -0.61537,4.30769 l 0.41026,-6.35895 0.20511,2.05126 c 1.42779,-5.83731 4.16368,-12.17442 10.11965,-20.51277 12.30543,-17.22752 14.76897,-20.85602 13.53844,-28.23928 -1.23053,-7.38321 2.46175,-18.46239 3.6923,-23.38457 1.23052,-4.9221 3.69229,-15.99997 3.69229,-15.99997 l 3.6923,-8.61536 c -3e-5,0 7.38414,-7.3855 4.92308,-12.30767 -2.46107,-4.92216 1.22962,-23.38409 -4.92308,-20.92304 z m -59.00842,133.88009 3.62393,5.94872 -4.03419,-5.88035 z m 22.29054,22.35893 c 0.19924,1.78593 0.50342,3.27696 0.8889,4.71793 l -1.02564,-2.18803 z m -31.11105,19.55551 c -1.69198,-0.46143 -4.1715,-0.47849 -7.24783,0.13676 l -9.84615,8.61536 h 17.23074 c 0,0 2.46151,-3.69277 2.46153,-6.15383 0,-1.23052 -0.90631,-2.13683 -2.59829,-2.59829 z m 37.40164,0.8889 h 0.47863 l 0.13677,1.09402 z"
       style="fill:#ffffff;fill-opacity:1;fill-rule:evenodd;stroke:none;stroke-width:2.98190975;stroke-linecap:butt;stroke-linejoin:miter;stroke-miterlimit:4;stroke-opacity:1"
       inkscape:connector-curvature="0"
       inkscape:export-xdpi="103.83"
       inkscape:export-ydpi="103.83" />
    <g
       transform="matrix(2.3855278,0,0,2.3855278,108.28719,-703.43353)"
       id="g2130"
       inkscape:export-xdpi="103.83"
       inkscape:export-ydpi="103.83">
      <path
         id="path1373"
         d="m 201.90419,612.44895 c 3.09503,4.64253 5.15837,7.22171 5.15837,10.31672 0,3.09502 -1.54751,6.19004 1.03167,8.76922 2.57918,2.57917 1.54751,2.06334 3.61086,2.57917 2.06334,0.51584 4.12668,-1.03166 4.12668,-1.03166 l -1.03167,-2.06335 v 0"
         style="fill:none;fill-opacity:0.75;fill-rule:evenodd;stroke:#000000;stroke-width:0.875;stroke-linecap:butt;stroke-linejoin:miter;stroke-miterlimit:4;stroke-opacity:1"
         inkscape:connector-curvature="0" />
      <g
         id="g2117">
        <path
           id="path1367"
           d="m 208.61006,577.88794 c -2.57917,1.03166 -5.67419,4.12668 -6.19003,5.15836 -0.51584,1.03167 -1.5475,2.06333 -1.5475,2.06333 0,0 -2.57919,-0.51582 -4.1267,0 -1.5475,0.51584 -4.64252,2.57919 -4.64252,2.57919 0,0 -4.12668,0 -5.6742,1.54751 -1.5475,1.54751 -5.67419,4.64252 -10.31672,15.99092 -4.64252,11.34839 -4.12668,16.50675 -4.12668,18.05426 0,1.54751 -0.51584,4.64252 -2.06335,6.70587 -1.54751,2.06335 -2.57918,4.12668 -10.83256,3.09502 -8.25338,-1.03167 -9.80089,1.03166 -9.80089,1.03166 0,0 4.64253,3.61086 7.73755,3.61086 3.09501,0 12.38006,0.51584 14.44341,-0.51583 2.06334,-1.03168 6.70587,-2.57919 7.2217,-4.64252 0.51584,-2.06335 0.51584,-2.06335 0.51584,-2.06335"
           style="fill:none;fill-opacity:0.75;fill-rule:evenodd;stroke:#000000;stroke-width:0.875;stroke-linecap:butt;stroke-linejoin:miter;stroke-miterlimit:4;stroke-opacity:1"
           inkscape:connector-curvature="0" />
        <path
           id="path1369"
           d="m 196.74583,609.86977 c 5.6742,2.06334 8.25339,7.22171 6.19004,12.38006 -2.06334,5.15837 -6.19004,9.8009 -8.76921,11.3484 -2.57918,1.54751 -10.31672,4.12669 -13.41174,2.06334 -3.09502,-2.06334 -3.09502,-2.06334 -3.09502,-2.06334"
           style="fill:none;fill-opacity:0.75;fill-rule:evenodd;stroke:#000000;stroke-width:0.875;stroke-linecap:butt;stroke-linejoin:miter;stroke-miterlimit:4;stroke-opacity:1"
           inkscape:connector-curvature="0" />
        <path
           id="path1371"
           d="m 196.74583,632.05073 c 2.57919,-0.51584 4.1267,0 4.1267,1.03167 0,1.03166 -1.03167,2.57917 -1.03167,2.57917 h -7.22171 v 0"
           style="fill:none;fill-opacity:0.75;fill-rule:evenodd;stroke:#000000;stroke-width:0.875;stroke-linecap:butt;stroke-linejoin:miter;stroke-miterlimit:4;stroke-opacity:1"
           inkscape:connector-curvature="0" />
        <path
           sodipodi:nodetypes="ccccccccccccccccccc"
           id="path1375"
           d="m 215.83177,634.11406 c 2.06335,0.51584 4.12669,0 2.57919,-1.54749 -1.54752,-1.54752 -3.61086,-3.09503 -3.61086,-3.09503 0,0 -2.57918,-3.09501 -2.06334,-8.7692 0.51584,-5.6742 0,-9.28506 5.15836,-16.50677 5.15836,-7.2217 6.19003,-8.76921 5.6742,-11.86423 -0.51584,-3.09501 1.03167,-7.73753 1.54751,-9.80088 0.51583,-2.06335 1.5475,-6.70587 1.5475,-6.70587 l 1.54751,-3.61085 c 0,0 3.09502,-3.09502 2.06335,-5.15837 -1.03168,-2.06334 0.51583,-9.80088 -2.06335,-8.76921 -2.57918,1.03168 -4.64629,4.47685 -4.64629,4.47685 0,0 -1.02791,0.52337 -4.63876,0.34265 -3.78405,0.33886 -4.6463,0.3351 -4.6463,0.3351 0,0 -5.15459,-4.12292 -5.67043,-3.09126 -0.51583,1.03167 1.03168,6.70587 1.03168,6.70587 0,0 -1.03168,3.09502 -0.51584,4.1267 0.51584,1.03167 1.03167,4.12668 1.03167,5.67419 0,1.54751 0,1.54751 0,1.54751"
           style="fill:none;fill-opacity:0.75;fill-rule:evenodd;stroke:#000000;stroke-width:0.875;stroke-linecap:butt;stroke-linejoin:miter;stroke-miterlimit:4;stroke-opacity:1"
           inkscape:connector-curvature="0" />
        <path
           id="path1377"
           d="m 219.76832,572.17796 c 0.5196,-0.5196 0.5196,-1.21239 1.2124,-1.9052 0.6928,-0.6928 2.25161,-1.0392 2.77121,-0.6928 0.5196,0.3464 0.5196,1.03921 0.3464,1.55881 -0.1732,0.51959 -2.25161,1.55879 -3.2908,1.03919 -1.03921,-0.5196 -0.86601,-0.5196 -0.86601,-0.5196"
           style="fill:none;fill-opacity:0.75;fill-rule:evenodd;stroke:#000000;stroke-width:0.875;stroke-linecap:butt;stroke-linejoin:miter;stroke-miterlimit:4;stroke-opacity:1"
           inkscape:connector-curvature="0" />
        <path
           id="path1379"
           d="m 215.78471,571.65836 c -1.55881,-1.9052 -2.77121,-2.598 -3.63722,-1.5588 -0.866,1.03921 0,2.25161 0.86601,2.598 0.866,0.34641 1.90521,0.17321 2.25161,-0.34639 0.3464,-0.5196 0.5196,-0.69281 0.5196,-0.69281 z"
           style="fill:none;fill-opacity:0.75;fill-rule:evenodd;stroke:#000000;stroke-width:0.875;stroke-linecap:butt;stroke-linejoin:miter;stroke-miterlimit:4;stroke-opacity:1"
           inkscape:connector-curvature="0" />
        <path
           id="path1381"
           d="m 216.13111,574.60277 1.5588,1.73201 1.732,-1.55881 v 0"
           style="fill:none;fill-opacity:0.75;fill-rule:evenodd;stroke:#000000;stroke-width:0.875;stroke-linecap:butt;stroke-linejoin:miter;stroke-miterlimit:4;stroke-opacity:1"
           inkscape:connector-curvature="0" />
        <path
           id="path1383"
           d="m 218.03631,576.68118 v 0.5196 l -1.9052,1.0392 v 0"
           style="fill:none;fill-opacity:0.75;fill-rule:evenodd;stroke:#000000;stroke-width:0.875;stroke-linecap:butt;stroke-linejoin:miter;stroke-miterlimit:4;stroke-opacity:1"
           inkscape:connector-curvature="0" />
        <path
           id="path1385"
           d="m 218.38272,577.20078 1.5588,0.5196"
           style="fill:none;fill-opacity:0.75;fill-rule:evenodd;stroke:#000000;stroke-width:0.875;stroke-linecap:butt;stroke-linejoin:miter;stroke-miterlimit:4;stroke-opacity:1"
           inkscape:connector-curvature="0" />
        <path
           id="path1387"
           d="m 221.84672,570.27276 c -0.1732,1.3856 0.34641,1.55881 0.34641,1.55881 0,0 -0.17321,-1.38561 -0.34641,-1.55881 z"
           style="fill:none;fill-opacity:0.75;fill-rule:evenodd;stroke:#000000;stroke-width:0.875;stroke-linecap:butt;stroke-linejoin:miter;stroke-miterlimit:4;stroke-opacity:1"
           inkscape:connector-curvature="0" />
        <path
           id="path1389"
           d="m 213.7063,570.44596 c -0.3464,1.38561 0,2.07841 0,2.07841 z"
           style="fill:none;fill-opacity:0.75;fill-rule:evenodd;stroke:#000000;stroke-width:0.875;stroke-linecap:butt;stroke-linejoin:miter;stroke-miterlimit:4;stroke-opacity:1"
           inkscape:connector-curvature="0" />
      </g>
    </g>
    <g
       transform="matrix(2.3855278,0,0,2.3855278,-329.55545,-832.19399)"
       id="g2091"
       inkscape:export-xdpi="103.83"
       inkscape:export-ydpi="103.83">
      <rect
         y="626.47272"
         x="247.35376"
         height="28.012854"
         width="29.660669"
         id="rect3020"
         style="fill:#ffffff;fill-opacity:1;fill-rule:evenodd;stroke:#000000;stroke-width:0.72738053pt;stroke-linecap:butt;stroke-linejoin:miter;stroke-opacity:1" />
      <g
         id="g2149">
        <circle
           transform="matrix(0.108345,0,0,0.108345,251.1648,561.1945)"
           id="path3006"
           style="fill:#878787;fill-opacity:1;fill-rule:evenodd;stroke:#000000;stroke-width:4.32645702;stroke-linecap:butt;stroke-linejoin:miter;stroke-miterlimit:4;stroke-opacity:1"
           cx="104.20885"
           cy="730.67401"
           r="33.981148" />
        <path
           id="path3008"
           d="m 263.3211,630.10074 v 4.2544 l 4.2544,2.29082 3.92713,-2.61809 c 0,0 -0.65452,-1.6363 -3.27261,-2.94534 -2.61809,-1.30905 -4.90892,-0.98179 -4.90892,-0.98179 z"
           style="fill:#878787;fill-opacity:1;fill-rule:evenodd;stroke:#000000;stroke-width:0.625;stroke-linecap:butt;stroke-linejoin:miter;stroke-miterlimit:4;stroke-opacity:1"
           inkscape:connector-curvature="0" />
        <path
           id="path3010"
           d="m 271.33881,645.85489 -3.68441,-2.1272 -4.11111,2.539 0.30376,4.71004 c 0,0 1.74434,0.25132 4.18705,-1.36149 2.44272,-1.61281 3.30471,-3.76035 3.30471,-3.76035 z"
           style="fill:#878787;fill-opacity:1;fill-rule:evenodd;stroke:#000000;stroke-width:0.625;stroke-linecap:butt;stroke-linejoin:miter;stroke-miterlimit:4;stroke-opacity:1"
           inkscape:connector-curvature="0" />
        <path
           id="path3012"
           d="m 252.9674,644.98557 3.68441,-2.12719 -0.14328,-4.82983 -4.2309,-2.09196 c 0,0 -1.08982,1.38499 -0.91444,4.30684 0.17538,2.92186 1.60421,4.74214 1.60421,4.74214 z"
           style="fill:#878787;fill-opacity:1;fill-rule:evenodd;stroke:#000000;stroke-width:0.625;stroke-linecap:butt;stroke-linejoin:miter;stroke-miterlimit:4;stroke-opacity:1"
           inkscape:connector-curvature="0" />
      </g>
    </g>
    <circle
       id="path2121"
       style="fill:none;fill-opacity:0.75;fill-rule:evenodd;stroke:#000000;stroke-width:1.49095488;stroke-linecap:butt;stroke-linejoin:miter;stroke-miterlimit:4;stroke-opacity:1"
       cx="465.79193"
       cy="725.47736"
       r="2.687036"
       inkscape:export-xdpi="103.83"
       inkscape:export-ydpi="103.83" />
    <circle
       id="path2123"
       style="fill:none;fill-opacity:0.75;fill-rule:evenodd;stroke:#000000;stroke-width:1.49095488;stroke-linecap:butt;stroke-linejoin:miter;stroke-miterlimit:4;stroke-opacity:1"
       cx="473.853"
       cy="725.47736"
       r="2.687036"
       inkscape:export-xdpi="103.83"
       inkscape:export-ydpi="103.83" />
    <path
       sodipodi:nodetypes="cccccc"
       id="path3643"
       d="m 467.21508,688.67512 c -19.23608,0.80152 -17.63308,16.8316 -17.63308,33.66317 0,16.83156 0,25.64812 0,25.64812 l 2.40452,-8.89015 c 4.61411,2.76848 2.88978,-32.66673 7.69881,-39.07876 4.80901,-6.41204 7.52975,-11.34238 7.52975,-11.34238 z"
       style="fill:#ffffff;fill-opacity:1;fill-rule:evenodd;stroke:none;stroke-width:0.59638198pt;stroke-linecap:butt;stroke-linejoin:miter;stroke-opacity:1"
       inkscape:connector-curvature="0"
       inkscape:export-xdpi="103.83"
       inkscape:export-ydpi="103.83" />
  </g>
</svg>
