<?xml version="1.0" encoding="UTF-8" standalone="no"?>
<!-- Created with Inkscape (http://www.inkscape.org/) -->

<svg
   xmlns:dc="http://purl.org/dc/elements/1.1/"
   xmlns:cc="http://creativecommons.org/ns#"
   xmlns:rdf="http://www.w3.org/1999/02/22-rdf-syntax-ns#"
   xmlns:svg="http://www.w3.org/2000/svg"
   xmlns="http://www.w3.org/2000/svg"
   xmlns:sodipodi="http://sodipodi.sourceforge.net/DTD/sodipodi-0.dtd"
   xmlns:inkscape="http://www.inkscape.org/namespaces/inkscape"
   width="350.00027"
   height="395.76801"
   id="svg6272"
   version="1.1"
   inkscape:version="0.92.5 (2060ec1f9f, 2020-04-08)"
   sodipodi:docname="canada.svg"
   inkscape:export-filename="/home/bcrowell/Documents/blog/moving_through_spacetime_at_c/canada.png"
   inkscape:export-xdpi="103.83"
   inkscape:export-ydpi="103.83">
  <defs
     id="defs6274">
    <inkscape:perspective
       sodipodi:type="inkscape:persp3d"
       inkscape:vp_x="0 : 526.18109 : 1"
       inkscape:vp_y="0 : 1000 : 0"
       inkscape:vp_z="744.09448 : 526.18109 : 1"
       inkscape:persp3d-origin="372.04724 : 350.78739 : 1"
       id="perspective6280" />
    <inkscape:perspective
       id="perspective6093"
       inkscape:persp3d-origin="0.5 : 0.33333333 : 1"
       inkscape:vp_z="1 : 0.5 : 1"
       inkscape:vp_y="0 : 1000 : 0"
       inkscape:vp_x="0 : 0.5 : 1"
       sodipodi:type="inkscape:persp3d" />
    <inkscape:perspective
       id="perspective6647"
       inkscape:persp3d-origin="0.5 : 0.33333333 : 1"
       inkscape:vp_z="1 : 0.5 : 1"
       inkscape:vp_y="0 : 1000 : 0"
       inkscape:vp_x="0 : 0.5 : 1"
       sodipodi:type="inkscape:persp3d" />
  </defs>
  <sodipodi:namedview
     id="base"
     pagecolor="#ffffff"
     bordercolor="#666666"
     borderopacity="1.0"
     inkscape:pageopacity="0.0"
     inkscape:pageshadow="2"
     inkscape:zoom="1.0654616"
     inkscape:cx="175.32751"
     inkscape:cy="481.02864"
     inkscape:document-units="px"
     inkscape:current-layer="layer1"
     showgrid="false"
     inkscape:window-width="1280"
     inkscape:window-height="998"
     inkscape:window-x="0"
     inkscape:window-y="0"
     inkscape:window-maximized="1" />
  <metadata
     id="metadata6277">
    <rdf:RDF>
      <cc:Work
         rdf:about="">
        <dc:format>image/svg+xml</dc:format>
        <dc:type
           rdf:resource="http://purl.org/dc/dcmitype/StillImage" />
        <dc:title />
      </cc:Work>
    </rdf:RDF>
  </metadata>
  <g
     inkscape:label="Capa 1"
     inkscape:groupmode="layer"
     id="layer1"
     transform="translate(-174.99973,-334.47821)">
    <path
       style="fill:#433dca;fill-opacity:1;fill-rule:nonzero;stroke:none;stroke-width:0.66510433"
       d="m 239.2024,437.34355 0.92361,2.96439 -1.96673,0.97168 1.22628,-0.48584 -0.2559,1.22629 2.45257,-0.97038 -2.93711,2.45258 v 1.45621 l 1.22628,-0.48584 -1.71212,0.74174 1.45621,0.48584 -1.71212,0.25462 2.45257,0.74174 h -2.19666 l 2.93711,1.22629 h -0.97038 l 0.48584,0.71447 1.96673,-0.48455 -2.22264,0.74045 0.99636,1.22629 0.97168,-0.97038 -0.74175,0.97038 1.2016,0.48584 -0.20525,0.25591 h 1.94206 l -1.71212,1.45621 0.99635,1.22629 0.97168,-0.71577 0.48454,-0.51052 v 0.74045 l 0.2559,1.22629 -1.22628,0.48584 1.96803,-0.22993 -0.74175,2.45257 1.22629,1.45621 -1.48219,5.6469 0.2559,-2.68251 -1.96673,1.71083 1.96673,-2.70718 -4.4206,-2.19796 -0.48454,5.87682 h 0.97038 l -1.45622,2.45257 1.45622,0.48584 -1.22629,-0.22993 -5.13507,12.00825 -0.25591,5.39098 -1.96673,3.44893 0.2559,6.36266 1.22629,3.93477 2.19666,0.25461 v 2.45387 l -0.97167,-1.4822 -0.25461,2.19667 3.44893,9.09582 -0.51182,2.19796 1.7381,0.97038 4.1647,2.45257 2.6825,3.68016 3.19432,13.0046 0.48454,0.99636 4.67652,5.87682 -0.0416,0.0715 h 3.47231 l -4.4271,-6.20418 -0.22993,-7.1031 5.39098,3.42424 1.22628,4.90515 0.74046,2.93841 -0.0234,0.026 -0.71576,0.71577 0.74174,0.97037 v -1.63548 l 0.22993,0.91972 0.75734,1.04312 h 56.51308 l 0.1351,-1.29773 1.71212,0.48453 -0.97167,0.74175 3.16834,-1.48219 5.16235,0.25591 1.4809,-1.22629 3.42424,2.45257 1.22629,-1.22628 1.22628,0.74044 -0.48453,-1.71212 1.45621,0.22993 1.4809,1.96803 1.22628,-1.22628 -2.45257,-0.97168 1.4822,-1.4822 -1.4822,-0.25461 -2.45257,-0.48583 7.35771,-1.45622 0.25592,-1.7368 0.71576,1.48089 -0.71576,0.74175 3.16833,-1.96803 -0.48584,0.97167 3.19433,-0.97167 -0.97168,0.48583 2.93971,-0.22992 0.48454,0.97037 0.74045,1.22629 2.45257,-1.71083 0.97168,-0.74174 1.22628,0.25591 0.48584,0.22992 3.93477,3.19302 v 3.68016 l 1.22628,-0.48584 -0.13769,0.55729 h 7.52139 l -4.44529,-8.91266 -2.19796,-4.1647 2.19796,-4.4193 -0.74044,-0.97168 0.99635,0.74175 1.45622,-2.22264 2.96309,-4.65054 6.13143,-6.38734 -1.96673,0.25461 1.22628,-1.4809 -1.71212,-0.22992 2.6825,-0.25591 0.99765,-1.45622 -0.74174,-1.22628 -0.25591,1.45621 -0.22993,-1.22629 -1.96673,0.74045 1.22628,-1.71212 1.22629,0.48584 -0.99636,-2.19667 1.96673,2.93841 -2.19666,-3.68015 -3.19302,-0.48454 1.71083,0.22993 -1.45622,-1.45752 1.22629,0.97168 0.22993,-1.4822 -0.22993,-0.10262 v -1.12366 l -3.44893,-0.71577 v -1.22629 l 3.19431,1.45622 -2.19795,-4.1647 1.94205,-1.71082 -0.71577,2.93711 2.93841,2.70848 -0.25591,3.42425 1.22629,-5.64689 -2.45257,-4.42061 2.45257,2.22394 1.22628,-3.68015 -1.22628,-2.45258 1.22628,-2.70848 5.16236,-2.93841 -0.48584,-1.96673 0.97037,1.22628 2.93841,-1.96673 -0.74044,-1.22759 -0.23123,1.4822 -2.70718,-1.71212 0.25591,-5.6456 0.97168,-0.48583 -0.48715,-1.22629 h 1.71213 l -0.22993,-3.19432 0.48454,1.4822 0.97167,-1.73681 0.99766,0.74045 1.71083,-2.93841 -1.22629,-1.22629 h 1.96803 l 3.42296,-5.16105 -0.48455,2.45257 0.97038,-0.48454 2.45258,-1.22758 -0.97038,1.96803 -1.4822,-0.74045 -2.19666,4.67522 0.97038,2.6825 1.96673,0.48584 0.97167,-5.39099 1.73681,-0.22993 -0.51052,-0.99635 4.18938,-4.1647 0.71576,-0.97167 -1.2003,-0.30658 1.94076,-2.88645 0.2559,-0.48583 -0.48584,-0.25591 -0.99635,-0.25461 v 2.70718 l -0.74045,0.48584 0.51052,-2.93841 -1.22629,-2.45258 -0.74045,4.65054 1.37958,1.40555 -1.63548,-0.40919 -2.68251,2.19666 -4.19067,-0.74045 -1.45622,-2.45257 -1.22628,0.74045 v -3.19302 l -1.4822,1.48089 -0.74174,-0.97037 -2.19537,0.71576 3.19302,-1.71212 1.22629,-2.19796 -1.71083,-2.22265 -3.44892,1.22629 -3.19562,3.93477 -4.1647,9.32575 1.48219,-4.67522 -0.74045,-1.71212 3.93477,-6.13144 0.22993,-2.93841 0.25591,-1.22628 -23.62029,19.67904 -51.96388,-2.23824 -56.65338,-5.79498 c -2.40336,-6.36859 -4.05238,-12.48006 -5.11819,-18.29037 h -2.49674 -0.001 z"
       id="path5345"
       inkscape:connector-curvature="0" />
    <path
       style="color:#000000;display:inline;overflow:visible;visibility:visible;fill:#ff7293;fill-opacity:1;fill-rule:nonzero;stroke:none;stroke-width:0.66510433;marker:none;enable-background:accumulate"
       d="m 232.58124,402.3853 c -0.59172,0.8143 -0.94773,1.32201 -0.93661,1.351 0.0521,0.13587 0.558,0.46505 1.12367,0.73265 0.56566,0.2676 1.06708,0.5493 1.11457,0.62613 0.0475,0.0768 -0.0119,1.37875 -0.13251,2.89165 -0.12063,1.5129 -0.18292,2.75005 -0.13769,2.75005 0.0452,0 0.65683,-0.26491 1.35878,-0.58846 1.19582,-0.55118 1.32646,-0.57402 2.06676,-0.35723 1.70391,0.49898 1.56022,-0.10442 1.71343,7.22781 l 0.1364,6.49386 0.97297,1.30553 c 0.53537,0.71804 1.02928,1.39888 1.09768,1.51337 0.2392,0.40041 -0.79897,3.11761 -1.39126,3.64119 -0.34363,0.30376 -0.48032,0.54016 -0.35594,0.61703 0.39794,0.24595 0.18693,0.44165 -0.70667,0.65602 -0.68689,0.16478 -0.96278,0.33775 -1.13146,0.70797 -0.20666,0.45357 -0.17104,0.53428 0.48844,1.09119 l 0.71187,0.60015 -0.52481,0.20265 c -0.28876,0.11107 -0.60298,0.20135 -0.69888,0.20135 -0.0959,-1e-5 -0.17407,0.0509 -0.17407,0.11302 0,0.19652 0.58905,2.3957 0.68199,2.54609 0.0489,0.0792 0.43994,-0.13886 0.86906,-0.48323 1.1914,-0.95614 1.29415,-0.98299 0.94309,-0.24682 -0.17987,0.37721 -0.41013,0.61153 -0.54819,0.55858 -0.1571,-0.0603 -0.0531,0.48319 0.30657,1.60171 0.65679,2.04235 0.66117,2.1394 0.10782,2.39152 -0.35449,0.16142 -0.42077,0.30721 -0.35204,0.77552 0.0466,0.31737 0.11484,0.57677 0.15069,0.57677 0.0358,0 0.48747,-0.16656 1.00415,-0.37022 0.51668,-0.20366 0.9392,-0.33825 0.9392,-0.30008 0,0.0381 -0.58749,0.54921 -1.30552,1.13665 -1.24866,1.02154 -1.30553,1.10302 -1.30553,1.87061 0,0.47327 -0.0951,0.83679 -0.23253,0.88594 -0.12822,0.0458 0.0606,0.21462 0.41959,0.37412 l 0.65211,0.28968 -0.73655,0.0156 c -0.871,0.018 -0.70815,0.22444 0.45726,0.58197 l 0.83918,0.2572 -0.83918,0.10133 -0.83917,0.10003 1.19511,0.45336 c 0.88344,0.33514 1.10629,0.48419 0.85346,0.57287 -0.3238,0.1136 -0.32127,0.14118 0.052,0.51442 0.30185,0.30185 0.3315,0.40756 0.12861,0.45206 -0.19969,0.0438 -0.14498,0.20954 0.21823,0.6716 0.41077,0.52256 0.52543,0.5775 0.77812,0.37282 0.22361,-0.18112 0.26243,-0.18299 0.15719,-0.008 -0.0893,0.14869 0.0313,0.31044 0.33645,0.44946 0.26222,0.11948 0.47674,0.28801 0.47674,0.37412 0,0.0861 0.42528,0.15719 0.9444,0.15719 h 0.9431 l -0.85347,0.73915 -0.85476,0.73915 0.5352,0.59755 0.5339,0.59756 0.66771,-0.50923 0.669,-0.51051 0.1312,0.87165 c 0.0975,0.65013 0.0646,0.91376 -0.12731,1.03532 -0.17776,0.11261 -0.0704,0.16429 0.34814,0.16628 0.6958,0.003 0.69863,0.0116 0.33386,1.22369 -0.1501,0.49875 -0.25441,0.92301 -0.23253,0.9431 0.0219,0.0201 1.72863,0.50838 3.79317,1.08599 3.12207,0.87346 5.94865,1.44142 16.80038,3.36969 l 13.04747,2.31747 11.82769,0.73915 11.82639,0.73915 5.68846,-0.25331 c 3.12858,-0.13922 5.70955,-0.25836 5.73523,-0.26501 0.0257,-0.007 0.0468,-0.21208 0.0468,-0.45596 0,-0.52165 0.39882,-0.91218 0.78202,-0.76513 0.1706,0.0655 0.35371,-0.0782 0.49623,-0.39101 l 0.22603,-0.49623 -0.70538,0.12991 -0.70537,0.1312 0.64172,-0.6677 c 0.3535,-0.36723 0.69108,-0.66771 0.74954,-0.66771 0.11405,0 1.31203,1.94166 1.31203,2.12652 0,0.0609 -0.35647,0.12043 -0.79242,0.1312 l -0.7924,0.0195 0.68458,0.21304 c 0.90689,0.28312 1.01624,0.42379 0.44298,0.56768 -0.26122,0.0656 -0.47415,0.23032 -0.47415,0.36632 0,0.48254 0.66711,0.83809 1.81735,0.96778 1.10604,0.12471 1.16653,0.11179 1.16653,-0.265 0,-0.51321 0.0719,-0.50267 0.89633,0.1351 0.62915,0.48673 1.00817,0.57736 4.40502,1.05611 l 3.71782,0.52481 0.77682,-0.89633 c 0.7332,-0.84516 0.81636,-0.88955 1.45882,-0.76903 0.66946,0.1256 0.68189,0.11824 0.70018,-0.48584 0.016,-0.53044 0.0352,-0.55431 0.14159,-0.17537 0.12147,0.43263 0.12935,0.43297 0.5482,0.0922 0.38268,-0.3113 0.40314,-0.40702 0.20914,-0.96128 -0.11854,-0.33861 -0.16815,-0.66323 -0.11042,-0.72096 0.0577,-0.0577 1.09908,-0.0444 2.31358,0.0286 l 2.20835,0.1325 0.92491,1.30553 0.92621,1.30422 0.83917,-0.10132 c 0.4616,-0.0558 1.09627,-0.15526 1.41075,-0.22084 l 0.57158,-0.11951 0.62873,2.08755 0.63003,2.08754 0.85087,0.4001 c 0.46782,0.22004 0.91692,0.50571 0.99895,0.63393 0.11218,0.17533 1.20681,0.23253 4.41541,0.23253 h 4.26472 l 1.36788,1.23668 c 2.44749,2.21356 2.25495,1.93038 1.98882,2.92542 l -0.23383,0.87424 h -1.28733 c -1.22934,0 -1.32776,-0.0347 -2.17848,-0.74694 -0.49007,-0.4103 -0.95249,-0.74564 -1.02754,-0.74564 -0.0751,0 0.18207,0.3885 0.57158,0.86385 l 0.70797,0.86516 -0.0403,1.88619 c -0.052,2.44675 -0.17167,3.07871 -0.70537,3.71913 -0.24164,0.28995 -0.44098,0.58435 -0.44298,0.65341 -0.002,0.0691 -0.0823,0.66686 -0.17797,1.32891 -0.11417,0.79005 -0.10879,1.28193 0.0143,1.43024 0.13391,0.16135 0.0816,0.25842 -0.18057,0.34164 -0.2864,0.0909 -0.77033,0.93479 -0.77033,1.3419 h -10e-4 c 0,0.21792 0.40552,-0.0788 1.68354,-1.23278 1.35183,-1.22062 1.54419,-1.32773 3.2177,-1.80046 1.07328,-0.30316 1.74729,-0.5851 1.69914,-0.71057 -0.0439,-0.11443 0.55111,-0.66038 1.32241,-1.21199 0.7713,-0.55161 1.40295,-1.07898 1.40295,-1.17303 0,-0.094 -0.088,-0.33708 -0.19615,-0.5391 -0.15992,-0.29881 -0.31633,-0.3449 -0.83917,-0.24681 -0.35348,0.0663 -0.64302,0.0722 -0.64302,0.0117 0,-0.0604 0.22829,-0.57689 0.50792,-1.14705 l 0.50922,-1.03663 2.1486,-0.6599 c 1.18208,-0.36279 2.30096,-0.70213 2.48634,-0.75474 0.30335,-0.0861 0.68849,-0.75172 0.68849,-1.18991 0,-0.0988 -0.19949,-0.0942 -0.47804,0.0117 -1.06448,0.40471 -0.83601,0.12364 0.75863,-0.93401 0.92318,-0.6123 1.75502,-1.09354 1.84853,-1.0704 0.0935,0.0231 0.51203,-0.66641 0.9314,-1.53156 l 0.76254,-1.57313 4.56999,-2.10703 c 2.51312,-1.15899 4.62743,-2.13028 4.69859,-2.15769 0.2444,-0.0941 0.53482,-2.47797 0.72097,-5.91969 0.10251,-1.89555 0.27141,-3.53198 0.37542,-3.63599 0.1278,-0.1278 0.36702,-0.0874 0.73655,0.12471 0.54116,0.31058 0.55047,0.30791 0.99376,-0.25851 0.44658,-0.57063 0.45032,-0.57189 1.39386,-0.34554 0.52046,0.12486 1.02216,0.32506 1.11457,0.44427 0.0924,0.11921 0.57299,1.24407 1.06781,2.50064 0.69176,1.7567 0.978,2.28499 1.23927,2.28499 0.18689,0 0.66522,0.2944 1.06261,0.65342 0.56702,0.51227 0.87811,0.65087 1.44582,0.64821 0.72006,-0.004 0.73046,-0.0144 2.30838,-2.4123 0.8719,-1.32499 1.60998,-2.342 1.63938,-2.26031 0.0294,0.0817 -0.0293,0.51372 -0.1299,0.96128 -0.21372,0.9512 -0.1817,1.01942 0.34684,0.73655 0.38759,-0.20743 0.39005,-0.19963 0.1286,0.404 -0.14683,0.33897 -0.62226,1.36418 -1.05611,2.2785 l -0.78851,1.66276 0.42998,1.37048 c 0.40477,1.29066 0.4677,1.37944 1.09508,1.54195 1.47984,0.38332 1.33971,0.55983 1.84982,-2.32007 0.25439,-1.43607 0.48452,-2.63915 0.51052,-2.67341 0.026,-0.0343 0.38922,-0.10877 0.808,-0.16497 0.76678,-0.10285 0.90256,-0.28802 0.58196,-0.79501 -0.13376,-0.21154 0.3865,-0.8457 2.24083,-2.73187 1.32831,-1.35111 2.4149,-2.53821 2.4149,-2.63833 0,-0.10012 -0.25507,-0.23263 -0.56637,-0.29488 l -0.56508,-0.11431 0.33255,-0.50663 c 0.3212,-0.49019 0.32067,-0.50265 -0.0143,-0.37412 -0.2957,0.11348 -0.3305,0.0643 -0.23123,-0.33125 0.064,-0.255 0.16754,-0.95164 0.22993,-1.54845 0.10068,-0.96322 0.0503,-1.21042 -0.45076,-2.19666 -0.65114,-1.28157 -0.59709,-1.36562 -1.0691,1.67315 l -0.28709,1.85112 0.69238,0.71057 0.69369,0.71057 -0.64043,-0.18446 c -0.94735,-0.27169 -0.95817,-0.26687 -2.31227,0.84307 -0.68828,0.56417 -1.37376,1.02494 -1.52377,1.02494 -0.15001,0 -1.11259,-0.13862 -2.13951,-0.30917 l -1.868,-0.31047 -0.68849,-1.17822 c -0.37887,-0.6481 -0.77732,-1.18012 -0.88594,-1.18212 -0.10861,-0.002 -0.36077,0.1196 -0.55988,0.2702 -0.19911,0.1506 -0.4245,0.27597 -0.50143,0.27929 -0.077,0.003 -0.14029,-0.68233 -0.14029,-1.52376 v -1.52896 l -0.72096,0.70277 -0.72097,0.70408 -0.35463,-0.48584 c -0.35151,-0.48253 -0.36154,-0.48453 -1.16783,-0.20005 -1.24264,0.43842 -1.17238,0.3503 0.41439,-0.51572 1.304,-0.71168 1.52187,-0.9101 2.03169,-1.86021 l 0.57157,-1.06391 -0.49753,-0.70148 c -0.27326,-0.38552 -0.65335,-0.88707 -0.84437,-1.11457 l -0.34684,-0.41309 -1.70433,0.57158 -1.70304,0.57028 -1.63937,2.01739 c -1.53615,1.89037 -1.74769,2.26137 -3.38268,5.95086 -0.95921,2.16453 -1.77417,3.9052 -1.81215,3.86722 -0.038,-0.038 0.15165,-0.76998 0.42219,-1.62639 l 0.49233,-1.55753 -0.36763,-0.86906 -0.36763,-0.86905 1.96284,-3.04103 1.96284,-3.03974 0.15588,-1.84982 c 0.086,-1.01721 0.22768,-1.97679 0.31437,-2.13171 0.15635,-0.27936 12.42861,-6.75491 12.82144,-6.76536 0.13076,-0.003 0.25141,-0.86457 0.33256,-2.38243 l 0.126,-2.37592 1.37827,-1.30683 1.37828,-1.30683 0.29488,-1.58611 c 0.36166,-1.93935 0.36402,-2.05118 0.0286,-2.05118 -0.14718,0 -0.50494,-0.0897 -0.7937,-0.20005 l -0.52481,-0.20134 0.46635,-0.2767 c 0.46449,-0.27594 0.46453,-0.27624 -0.18576,-0.17537 -0.60137,0.0933 -0.62584,0.0798 -0.29878,-0.17017 0.36463,-0.27869 0.34904,-0.29635 -0.44556,-0.51442 -0.17345,-0.0476 -0.34639,-0.48259 -0.46506,-1.16393 l -0.18966,-1.08729 -1.00285,-0.34034 c -0.55136,-0.18694 -1.06488,-0.30138 -1.14055,-0.25462 -0.0757,0.0468 -0.24284,0.46458 -0.37282,0.92881 -0.12998,0.46424 -0.29309,0.84437 -0.36113,0.84437 -0.068,0 -0.25284,-0.35646 -0.4118,-0.79241 -0.18724,-0.51357 -0.39861,-0.78693 -0.59885,-0.77682 -0.16997,0.009 -0.67308,0.0284 -1.11846,0.0455 l -0.8093,0.0312 -0.51702,1.31593 c -0.55628,1.41787 -0.85077,1.69326 -0.37801,0.35333 0.15783,-0.44739 0.24256,-0.92793 0.18835,-1.06911 -0.0542,-0.14117 0.19822,-0.76415 0.56119,-1.38347 l 0.6599,-1.12625 -0.84697,0.1273 c -0.69702,0.10453 -0.84566,0.0761 -0.84566,-0.16367 0,-0.39816 -0.1354,-0.36893 -0.78072,0.17407 -0.6771,0.56972 -0.80014,0.57674 -1.16134,0.061 l -0.28449,-0.4053 -0.18056,0.45207 c -0.12371,0.30956 -0.18415,0.35234 -0.19226,0.13509 -0.01,-0.26354 -0.0989,-0.23765 -0.52351,0.15589 l -0.51182,0.47415 -0.0961,-0.4066 c -0.0817,-0.3462 -0.16214,-0.27259 -0.54299,0.49623 l -0.44687,0.90282 -0.35983,-1.21199 c -0.37802,-1.27059 -0.70147,-1.83025 -0.70147,-1.2146 0,0.33644 -0.0113,0.33803 -0.24422,0.0195 -0.21157,-0.28934 -0.34279,-0.30667 -0.97948,-0.12991 -1.18122,0.32795 -1.41268,0.281 -1.27694,-0.2598 0.13038,-0.51948 0.0443,-0.56237 -0.52351,-0.25851 -0.32842,0.17576 -0.37176,0.16096 -0.2741,-0.0935 0.0913,-0.23793 -0.007,-0.30138 -0.46635,-0.30138 -0.58111,0 -0.58173,-8.8e-4 -0.22733,-0.3962 l 0.35593,-0.3962 -0.65341,0.11431 c -0.6156,0.10785 -0.62398,0.10274 -0.1403,-0.0857 0.57922,-0.2257 0.59849,-0.30738 0.29749,-1.31203 -0.2152,-0.71836 -0.22048,-0.72096 -1.19772,-0.72096 -0.53954,0 -1.1162,-0.0533 -1.28214,-0.11692 -0.27241,-0.10454 -0.27368,-0.15756 -0.0169,-0.54949 0.3175,-0.48454 0.2714,-0.53979 -0.60924,-0.72875 -0.40279,-0.0864 -0.69352,-0.29602 -0.83268,-0.60145 l -0.21304,-0.46765 -0.44557,0.5326 -0.44556,0.5326 0.10781,-0.9327 0.10782,-0.93271 -0.55598,0.60925 -0.55599,0.60924 v -0.97037 c 0,-0.73322 -0.0971,-1.07284 -0.39751,-1.39256 l -0.3962,-0.42349 -0.75864,0.38711 -0.75733,0.38581 0.31956,-0.48713 0.31956,-0.48844 -1.76668,-0.87685 c -1.47392,-0.73216 -1.77631,-0.95723 -1.82254,-1.35358 -0.041,-0.352 -0.16328,-0.47545 -0.47415,-0.47545 -0.23079,0 -0.41958,0.0634 -0.41958,0.14029 v 1.0808 c 0,0.96323 0.28778,1.42907 1.22239,1.97453 0.35182,0.20532 0.3498,0.22537 -0.0961,0.70667 l -0.45985,0.49493 0.41309,0.10782 c 0.49462,0.12935 0.50423,0.23187 0.10002,1.0795 -0.2803,0.58786 -0.28345,0.68937 -0.0286,0.98596 0.60117,0.69955 0.55273,0.86121 -0.0792,0.26501 -0.75952,-0.71655 -0.72652,-0.7545 -1.07169,1.27824 -0.34237,2.0162 -0.31021,1.98422 -1.11458,1.0795 l -0.71057,-0.8002 -0.14419,1.11846 -0.14419,1.11977 -0.32605,-1.27305 c -0.17879,-0.70014 -0.36648,-1.31477 -0.4183,-1.36659 -0.0518,-0.0518 -0.78734,0.2059 -1.63418,0.57288 -0.84683,0.36698 -1.57756,0.62949 -1.62379,0.58326 -0.0462,-0.0462 -0.0297,-0.3003 0.0364,-0.56378 0.10463,-0.4169 0.1695,-0.45183 0.50402,-0.27279 0.52421,0.28054 0.58749,0.16092 0.43907,-0.82879 -0.11262,-0.75099 -0.16774,-0.83081 -0.46765,-0.6703 -0.57198,0.30612 -0.68663,0.21899 -1.13275,-0.85736 -0.42639,-1.02874 -0.43687,-1.03745 -1.08989,-0.93011 l -0.65991,0.10782 0.55988,-0.30527 c 0.30774,-0.16843 0.59076,-0.33333 0.62873,-0.36632 0.038,-0.033 -0.25528,-0.8248 -0.65081,-1.7589 -0.68929,-1.62781 -0.72471,-1.67456 -0.86645,-1.12756 -0.16554,0.63884 -0.30144,0.66467 -2.36035,0.44947 -1.12888,-0.11799 -1.16623,-0.13976 -1.44192,-0.82878 -0.25816,-0.6452 -0.3239,-0.69165 -0.74564,-0.53131 -0.71658,0.27245 -0.81217,0.24254 -2.66692,-0.85346 -0.95846,-0.56637 -1.75565,-1.00734 -1.77188,-0.97947 -0.0162,0.0278 -0.18668,0.41338 -0.37931,0.85606 l -0.35075,0.80411 -2.71757,-0.12861 -2.71757,-0.12991 -0.33255,0.69629 c -0.36904,0.77389 -0.41154,0.66873 0.86515,2.1486 l 0.72486,0.83917 -0.11042,1.45622 c -0.10896,1.44138 -0.10639,1.45584 0.30398,1.32501 0.77688,-0.24767 0.89086,-0.16999 1.57702,1.08469 l 0.68719,1.25616 -0.34944,2.83709 c -0.20034,1.63142 -0.27575,2.86545 -0.17797,2.90203 0.0936,0.035 0.92119,0.37519 1.83943,0.75604 l 1.66926,0.69239 1.50168,2.51752 c 0.82556,1.38478 1.62711,2.54526 1.78097,2.57858 0.45091,0.0977 1.14192,0.83001 0.95739,1.01454 -0.0914,0.0914 -0.4069,0.13888 -0.70148,0.10522 l -0.5365,-0.0611 -0.41439,1.94985 -0.41309,1.94854 -1.81475,1.82124 c -0.99783,1.00158 -1.77634,1.85379 -1.73031,1.8927 0.046,0.0389 0.5269,0.30839 1.0691,0.59885 0.96648,0.51775 1.01811,0.58791 2.59806,3.60871 0.88637,1.69469 1.64632,3.26342 1.68875,3.4853 0.0424,0.22189 -0.0987,0.74623 -0.31307,1.16653 -0.50036,0.98078 -0.49152,1.18599 0.0948,2.11483 l 0.48584,0.76903 -0.57288,-0.4079 c -0.31497,-0.22428 -0.62283,-0.48806 -0.68329,-0.58586 -0.18039,-0.2919 -0.45982,-0.20219 -0.46115,0.14808 -5.7e-4,0.17951 -0.0905,0.64553 -0.19876,1.03533 l -0.19615,0.70927 -0.96778,-0.0558 -0.96778,-0.0572 -0.10522,-0.78851 c -0.0579,-0.43405 -0.14243,-0.81795 -0.18706,-0.85347 -0.0446,-0.0356 -1.1301,-0.8064 -2.4123,-1.71212 -1.28221,-0.90573 -2.4045,-1.71017 -2.49414,-1.78877 -0.0896,-0.0786 -0.65048,-1.9204 -1.24577,-4.09195 -0.5953,-2.17156 -1.11701,-3.98267 -1.16004,-4.0257 -0.043,-0.043 -1.4329,0.14142 -3.0891,0.4105 l -3.01116,0.48973 -6.48346,-3.06442 -6.48217,-3.06441 -1.93816,0.90282 c -1.06645,0.49634 -1.98,0.86229 -2.02908,0.8132 -0.0491,-0.0491 0.0376,-0.40739 0.19225,-0.79631 0.27978,-0.70343 0.27557,-0.72011 -0.7924,-3.13196 l -1.07301,-2.42399 h -0.99506 c -0.89948,0 -1.00472,0.043 -1.10158,0.45336 -0.0998,0.42285 -0.14902,0.38773 -0.72875,-0.51572 -0.60565,-0.94382 -0.62513,-1.03838 -0.75993,-3.6243 l -0.1377,-2.65522 1.22888,-2.36034 c 1.20186,-2.30642 1.22233,-2.36837 0.88984,-2.73576 -0.3342,-0.36928 -0.31454,-0.40099 1.0808,-1.72641 l 1.42113,-1.3484 -0.51961,-0.34295 -0.51831,-0.34164 0.87554,-10e-4 c 0.77399,-0.001 0.93214,-0.074 1.3523,-0.62484 0.26166,-0.34306 0.47544,-0.70205 0.47544,-0.7963 0,-0.18544 -1.93263,-1.7511 -2.16159,-1.7511 -0.0766,0 -0.29305,0.13941 -0.48064,0.30918 -0.32231,0.29166 -0.34164,0.28082 -0.34164,-0.18707 0,-0.44746 -0.0668,-0.49553 -0.69888,-0.49753 -0.38467,-0.001 -1.01439,-0.0533 -1.39906,-0.11691 -0.61881,-0.10228 -0.69888,-0.17736 -0.69888,-0.65082 0,-0.2943 0.0404,-0.53519 0.0896,-0.53519 0.0493,0 1.24539,0.50336 2.65782,1.11846 1.41244,0.61512 2.65365,1.1181 2.75915,1.11847 0.1055,3.5e-4 0.34048,-0.57671 0.52221,-1.28215 l 0.32995,-1.28214 1.60691,-0.25591 1.6056,-0.25591 0.60924,-1.81605 c 0.33473,-0.99882 0.55117,-1.84688 0.48194,-1.88359 -0.0587,-0.0311 -1.43594,-0.42646 -2.85657,-0.82879 h -17.34337 c -0.61786,0.36104 -1.00749,0.34408 -2.12002,0 h -15.08736 c 0.0638,0.0836 0.10909,0.13799 0.17537,0.22604 0.97857,1.30014 1.02834,1.41476 0.79631,1.85761 -0.24128,0.4605 -0.26912,0.42638 -1.11717,-1.38607 -0.12705,-0.27154 -0.20949,-0.46448 -0.31437,-0.69758 h -3.71263 c 0.55583,0.40886 0.88984,0.7418 0.88984,0.90803 0,0.6877 -0.35712,0.49981 -1.50558,-0.79241 l -0.10262,-0.11562 h -44.5594 c -0.0343,0.0777 -0.0519,0.12022 -0.0935,0.21435 -0.20995,0.47463 -0.41986,0.86385 -0.46635,0.86385 -0.0465,0 -0.0844,-0.32193 -0.0844,-0.71576 0,-0.14366 0.006,-0.26246 0.0195,-0.36244 z m 89.66047,0 c 0.0835,0.029 0.26473,0.10011 0.26891,0.0948 0.009,-0.0109 0.0433,-0.0759 0.0559,-0.0948 z m -37.7005,3.32942 c 0.17075,-0.005 0.40069,-0.003 0.70407,0 1.24692,0.013 1.25369,0.0159 0.60796,0.25331 -1.32576,0.48739 -1.39543,0.4917 -1.63679,0.10523 -0.16757,-0.26836 -0.1875,-0.34335 0.32476,-0.35854 z m -1.46011,0.48584 0.58976,0.58976 c 0.6415,0.6415 0.53239,0.68524 -0.8028,0.32736 l -0.83917,-0.22473 0.5261,-0.34554 z m 24.12562,0.0364 -1.11846,0.6625 c -1.22681,0.72605 -1.52993,0.76231 -3.13846,0.37282 -1.82737,-0.44248 -1.79432,-0.57064 0.18316,-0.70148 1.00991,-0.0668 2.33984,-0.16899 2.9553,-0.22733 z m -18.73594,0.50142 0.97298,0.97428 c 0.53526,0.53525 0.93342,0.96443 0.88334,0.95479 -0.0501,-0.01 -0.91789,-0.17169 -1.92776,-0.35984 -1.00988,-0.18815 -1.88052,-0.38533 -1.93426,-0.43907 -0.0538,-0.0538 0.37635,-0.33075 0.95479,-0.61444 z m -16.70685,0.47545 c 0.22923,-0.0303 0.29047,0.12788 0.56378,0.78201 0.15849,0.37939 0.25902,0.68979 0.22344,0.68979 -0.0356,0 -0.39088,-0.28258 -0.78981,-0.62743 -0.70697,-0.61113 -0.7139,-0.62996 -0.29618,-0.76253 0.12772,-0.0405 0.22237,-0.0718 0.29877,-0.0818 z m 34.77379,1.66795 c 0.14138,-8.4e-4 0.2776,0.007 0.37672,0.0234 0.29974,0.0496 0.32341,0.11158 0.1351,0.36632 -0.20904,0.28281 -0.26961,0.2824 -0.78072,0.004 -0.52595,-0.28659 -0.53246,-0.30397 -0.1338,-0.36503 0.1154,-0.0177 0.26131,-0.0277 0.4027,-0.0286 z m -65.69334,0.1416 c 0.0892,0.0362 4.8e-4,0.44373 -0.23902,1.50428 -0.165,0.73061 -0.39604,1.32887 -0.51312,1.33021 -0.11709,0.001 -0.40183,0.0538 -0.63263,0.11561 -0.57779,0.15484 -0.53354,0.0167 0.34424,-1.09378 0.54747,-0.69261 0.69259,-0.99358 0.51312,-1.06651 -0.1877,-0.0763 -0.14605,-0.20579 0.16887,-0.51572 0.18766,-0.18467 0.30501,-0.29582 0.35854,-0.27409 z m 60.21403,1.75109 c 0.0364,0.0364 -0.0662,0.60914 -0.22863,1.27306 -0.1624,0.6639 -0.34648,1.25825 -0.4092,1.32111 -0.0627,0.0629 -0.46742,-0.13989 -0.90023,-0.45076 l -0.78721,-0.56508 1.13015,-0.82229 c 0.62153,-0.45225 1.15874,-0.79242 1.19512,-0.75604 z m -26.13393,0.19746 c 0.0398,-0.0398 0.88468,0.69115 1.8771,1.62379 l 1.80435,1.69523 2.5513,-1.33411 2.5513,-1.3341 1.39776,0.44297 1.39906,0.44297 -0.97947,0.0559 c -0.66906,0.0385 -0.97817,0.13608 -0.97817,0.30787 0,0.14639 -0.37747,0.34162 -0.90283,0.46765 -0.6508,0.15612 -1.69837,0.786 -3.7594,2.25772 l -2.85657,2.03948 -1.32371,-0.0195 c -1.24042,-0.018 -1.43294,-0.0809 -3.0943,-1.02234 -1.95079,-1.10547 -2.07884,-1.24837 -0.48973,-0.5456 l 1.04832,0.46376 0.67939,-1.02364 c 0.52537,-0.79127 0.79037,-1.02652 1.16653,-1.03663 1.13804,-0.0307 1.16285,-0.12642 0.47155,-1.83683 -0.34926,-0.86413 -0.60225,-1.6048 -0.56248,-1.64457 z m 31.61714,1.57182 0.17537,0.44947 c 0.0963,0.24665 0.26433,0.6792 0.37412,0.96128 0.10974,0.28208 0.13935,0.50641 0.0649,0.49883 -0.31673,-0.0322 -1.72122,-0.63323 -1.72122,-0.73655 0,-0.0622 0.24915,-0.35154 0.55339,-0.64302 z m 43.88259,0.5339 0.35724,0.44168 c 0.19638,0.24252 0.33347,0.45939 0.30527,0.48194 -0.15029,0.12033 -2.75076,0.23626 -2.6786,0.11951 0.047,-0.0761 0.51997,-0.34108 1.05091,-0.58976 z m -48.53442,1.01585 c 0.0848,0 0.28755,0.39266 0.45076,0.87165 0.16321,0.47899 0.27495,0.89158 0.24941,0.91712 -0.0255,0.0255 -0.20491,-0.07 -0.3988,-0.21175 -0.1939,-0.14178 -0.43433,-0.2846 -0.5352,-0.31826 -0.21664,-0.0722 0.004,-1.25876 0.23383,-1.25876 z m -33.63714,0.009 c 0.83901,-0.0605 1.33109,0.0651 1.52896,0.38192 0.1344,0.21514 0.21719,0.41157 0.18447,0.43518 -0.0327,0.0236 -0.81492,-0.0949 -1.73811,-0.26241 -1.5926,-0.28899 -1.64053,-0.3103 -0.93271,-0.43128 0.35858,-0.0613 0.67772,-0.10324 0.95739,-0.12341 z m 18.34493,0.33385 -0.76123,1.32112 c -0.41876,0.72632 -0.79391,1.31982 -0.83268,1.31982 -0.0388,0 -0.16363,-0.17473 -0.27799,-0.38842 -0.23661,-0.4421 -0.0252,-0.74757 1.17302,-1.69783 z m 12.92017,0.0325 c 0.0452,0.004 0.0917,0.0141 0.139,0.0299 0.11095,0.037 -0.0431,0.30253 -0.34295,0.58977 l -0.54559,0.52221 0.0948,-0.49363 c 0.0827,-0.43267 0.33829,-0.67828 0.65471,-0.64822 z m -6.20158,2.04987 c 0.15666,0 0.4625,0.73415 0.34035,0.81709 -0.035,0.0238 -0.42011,0.31858 -0.85606,0.65471 -0.43595,0.33613 -0.79371,0.56243 -0.79371,0.50403 0,-0.22571 1.15996,-1.97583 1.30942,-1.97583 z m 57.87188,1.03923 c 0.17063,0.01 0.36555,0.0416 0.58196,0.0961 0.47577,0.1198 0.84019,0.23844 0.8106,0.26371 -0.18584,0.15885 -2.19797,0.27656 -2.19797,0.1286 0,-0.34725 0.2935,-0.51715 0.80541,-0.48843 z m -55.86747,2.77863 c 0.0284,5.2e-4 0.0442,0.006 0.0442,0.0182 0,0.048 -0.21123,0.42182 -0.46895,0.83009 -0.25773,0.40826 -0.50987,0.74174 -0.55989,0.74174 -0.05,0 -0.0909,-0.28494 -0.0909,-0.63392 0,-0.53734 0.0861,-0.66492 0.55988,-0.83009 0.2308,-0.0804 0.43048,-0.12757 0.51572,-0.126 z m 9.28938,0.20395 c 0.051,-0.0127 0.0792,-0.0128 0.0792,0.001 0,0.0563 -0.29454,0.48827 -0.65472,0.95999 -0.63123,0.82669 -0.64269,0.87022 -0.32605,1.22368 0.32082,0.35814 0.31449,0.36431 -0.2637,0.23903 l -0.59236,-0.12861 0.24161,1.03793 c 0.13263,0.57062 0.18947,1.03476 0.12602,1.03143 -0.0635,-0.003 -0.33071,-0.16721 -0.59366,-0.36373 l -0.47805,-0.35723 0.2676,-1.38087 0.2663,-1.38087 1.00416,-0.49104 c 0.4139,-0.20299 0.77075,-0.35276 0.92361,-0.391 z m -6.70821,0.97816 c 0.13531,-0.0433 0.2263,0.33322 0.35984,1.2237 0.14435,0.96264 -0.0205,1.0829 -0.60405,0.44296 -0.36982,-0.40556 -0.37165,-0.44447 -0.0663,-1.15613 0.13236,-0.30841 0.22929,-0.48455 0.31047,-0.51053 z m 76.64419,0.51702 c 0.0745,0.0184 0.1316,0.13157 0.23382,0.35593 0.22392,0.49144 0.20351,0.50446 -0.49623,0.30787 -0.43015,-0.12084 -0.43094,-0.12883 -0.0766,-0.44946 0.1729,-0.15647 0.2645,-0.23273 0.33905,-0.21434 z m -80.75172,0.4118 c 0.11689,0.0389 0.21254,0.31037 0.33645,0.83138 0.11555,0.48588 0.0875,0.51311 -0.5378,0.51311 h -0.66121 l 0.3975,-0.77942 c 0.20928,-0.41022 0.34816,-0.60394 0.46506,-0.56507 z m 93.7849,0.48323 c 0.0249,-0.009 0.0454,-0.005 0.0611,0.0104 0.0625,0.0625 -0.038,0.25811 -0.22344,0.43518 -0.32223,0.30777 -0.32658,0.30342 -0.11301,-0.11301 0.0922,-0.17969 0.2006,-0.30696 0.27539,-0.33256 z m -15.19997,0.60925 c 0.11368,0.0154 0.23738,0.16482 0.38972,0.44947 0.17226,0.32185 0.12998,0.36243 -0.36893,0.36243 -0.52996,0 -0.54984,-0.0271 -0.35204,-0.46116 0.11326,-0.24859 0.21757,-0.36617 0.33125,-0.35074 z m -88.37054,0.57157 2.73966,0.70668 c 1.50734,0.38904 2.90863,0.77397 3.11378,0.85476 0.20587,0.0811 -1.03699,0.15183 -2.77473,0.15848 l -3.14886,0.0117 -1.62899,0.93271 c -0.89624,0.51288 -1.66903,0.9327 -1.71731,0.9327 -0.0807,0 -0.52091,-0.86064 -0.52091,-1.01844 0,-0.0377 0.88532,-0.63349 1.96803,-1.32371 z m 69.36181,1.3367 c 0.008,0.0193 -0.0182,0.0813 -0.0883,0.19486 -0.0588,0.0952 0.0754,0.23178 0.29877,0.30268 0.36072,0.11448 0.37057,0.14764 0.0935,0.30267 -0.17154,0.096 -0.616,0.30289 -0.98856,0.45856 l -0.6781,0.28189 0.60275,-0.75863 c 0.40259,-0.50832 0.73628,-0.8398 0.75994,-0.78203 z m 23.42285,1.43934 c 0.0559,-0.028 0.47643,0.30733 1.45621,1.08209 0.63261,0.50023 0.73788,0.5262 1.37307,0.33125 l 0.6872,-0.21174 -0.82489,0.71057 c -0.74665,0.64308 -0.89241,0.69897 -1.53935,0.58066 -0.79463,-0.14531 -0.79629,-0.14402 -0.97817,0.70408 -0.14412,0.67197 -0.38519,0.92091 -0.52871,0.54689 -0.0844,-0.22002 -2.67988,-1.42383 -3.25668,-1.51077 -0.20422,-0.0308 -1.16522,-1.16651 -1.16522,-1.37697 0,-0.0431 0.18878,0.0425 0.41958,0.18965 2.06007,1.31357 3.74572,2.21581 3.97504,2.12782 0.15205,-0.0584 0.32682,-0.25464 0.38841,-0.43648 0.0616,-0.18183 0.32885,-0.51598 0.59366,-0.74174 l 0.48194,-0.4105 -0.64303,-0.89503 c -0.30589,-0.4265 -0.48258,-0.66803 -0.43906,-0.68978 z m -21.4795,2.12651 c 0.12402,0 0.42289,0.20991 0.6638,0.46635 l 0.43778,0.46636 h -0.75214 c -0.70231,0 -0.74697,-0.0313 -0.6638,-0.46636 0.049,-0.25644 0.19033,-0.46635 0.31436,-0.46635 z m -58.89941,0.0546 c 0.0328,0.0328 -0.0859,0.60047 -0.2637,1.26136 -0.30667,1.1401 -0.35407,1.20459 -0.92751,1.26006 -0.33242,0.0322 -0.60535,0.0151 -0.60535,-0.0377 0,-0.0527 0.0924,-0.5215 0.20395,-1.04183 0.17839,-0.83178 0.28305,-0.97938 0.86775,-1.22368 0.36576,-0.15283 0.69201,-0.2511 0.72486,-0.21824 z m -44.2736,1.36139 c 0.0117,-0.0342 0.0533,0.0423 0.1299,0.21564 0.10202,0.23079 0.3355,0.42085 0.51832,0.42218 0.22097,0.002 0.25874,0.0507 0.11172,0.14419 -0.12164,0.0774 -0.24834,0.5582 -0.2806,1.0691 l -0.0584,0.92882 -0.13251,-0.83918 c -0.0729,-0.4616 -0.17965,-1.13227 -0.23772,-1.49129 -0.0436,-0.2697 -0.0624,-0.41526 -0.0507,-0.44946 z m 46.51703,0.1364 c 0.0277,0.0277 -0.059,1.0063 -0.19225,2.17457 l -0.24162,2.12392 -0.73006,0.63523 c -0.40166,0.34943 -1.0512,0.89164 -1.44322,1.2042 l -0.71318,0.56768 0.13121,-0.72487 c 0.15326,-0.84652 0.2689,-1.0509 0.2689,-0.47674 0,0.50412 0.1474,0.50012 0.78071,-0.0221 l 0.50014,-0.41308 -0.37802,-1.37568 -0.37932,-1.37697 1.17303,-1.18342 c 0.64512,-0.65091 1.19595,-1.16049 1.22368,-1.13275 z m 78.08481,0.49622 c 0.12183,-0.0244 0.40436,0.11621 0.70927,0.37023 l 0.44037,0.36632 -0.49363,0.006 c -0.4123,0.005 -0.71966,-0.278 -0.71966,-0.66251 0,-0.0466 0.023,-0.0724 0.0636,-0.0805 z m -10.25976,0.62484 c 0.11844,0.0186 0.23364,0.13705 0.2741,0.34554 0.0303,0.15616 -0.17119,0.43295 -0.44817,0.61444 -0.48671,0.31891 -0.49959,0.31839 -0.36112,-0.0195 0.0788,-0.19228 0.18627,-0.50089 0.23902,-0.68459 0.0555,-0.19344 0.17774,-0.27448 0.29617,-0.25591 z m -77.17418,0.25851 c 0.0818,1.9e-4 0.14417,0.0639 0.22473,0.17406 0.38937,0.5325 0.27199,0.78295 -0.46376,0.98727 -1.19233,0.33113 -1.27968,0.2357 -0.50661,-0.55599 0.41909,-0.42919 0.60936,-0.60567 0.74564,-0.60534 z m 16.95107,0.42478 c 0.0139,0 -0.0186,0.44006 -0.0727,0.97817 -0.0904,0.89838 -0.15276,1.00389 -0.75214,1.28215 -0.35902,0.16666 -0.86203,0.35908 -1.11847,0.42737 -0.46113,0.12281 -0.46085,0.12101 0.0351,-0.16238 0.27579,-0.15759 0.81261,-0.79007 1.19251,-1.40555 0.3799,-0.61548 0.70187,-1.11976 0.71577,-1.11976 z m 73.33944,0.97037 c 0.0672,-0.0195 0.29218,0.10957 0.73395,0.37023 0.60502,0.35697 0.64629,0.42401 0.33645,0.5456 -0.52189,0.20479 -0.5137,0.20902 -0.85736,-0.39492 -0.1898,-0.33356 -0.28028,-0.50145 -0.21304,-0.52091 z m -8.27613,0.42868 0.22473,0.83918 c 0.12367,0.46159 0.19076,0.90254 0.14939,0.97947 -0.0414,0.077 -0.28928,0.139 -0.55079,0.139 -0.41179,0 -0.45939,-0.0606 -0.35983,-0.45726 0.0632,-0.25192 0.20876,-0.69286 0.32476,-0.97947 z m -87.04423,1.27696 c 0.065,-0.01 0.21712,0.16028 0.45726,0.49752 0.32918,0.46228 0.37581,0.66843 0.22603,0.98986 -0.14706,0.31558 -0.21073,0.34347 -0.28579,0.12601 -0.37275,-1.08009 -0.50589,-1.5969 -0.3975,-1.61339 z m -40.29597,2.18496 c 0.10257,0 0.0237,0.1235 -0.17537,0.2741 -0.19912,0.15061 -0.44561,0.2741 -0.54819,0.2741 -0.10258,0 -0.0238,-0.12349 0.17536,-0.2741 0.19912,-0.1506 0.44562,-0.2741 0.5482,-0.2741 z m 38.96966,0.0727 c 0.0456,0.0186 0.13072,0.0989 0.25721,0.24162 0.44765,0.50514 0.54845,0.51456 1.02623,0.0935 0.29009,-0.25563 0.25566,-0.12374 -0.15848,0.60665 -0.29081,0.51288 -0.54332,0.95313 -0.55988,0.97947 -0.0166,0.0263 -0.13348,-0.29672 -0.25981,-0.71836 -0.12633,-0.42165 -0.27222,-0.90417 -0.32476,-1.073 -0.0325,-0.10441 -0.0261,-0.1485 0.0195,-0.12991 z m -38.31885,0.10262 c 0.32049,0 2.60411,1.72869 2.50194,1.89399 -0.0536,0.0867 -0.4073,0.15529 -0.78591,0.15329 -0.61848,-0.003 -0.74926,-0.0973 -1.29384,-0.93011 -0.65823,-1.00667 -0.70124,-1.11717 -0.42219,-1.11717 z m 56.84304,0.6768 0.4066,0.7989 c 0.22395,0.43899 0.38093,0.81093 0.34814,0.82749 -0.18465,0.0933 -1.27175,-0.11428 -1.27175,-0.24292 0,-0.0843 0.11629,-0.42948 0.2585,-0.76773 z m 72.80684,2.39541 c 0.0688,-0.01 0.11459,-0.008 0.12991,0.008 0.0572,0.0572 0.20607,0.96005 0.33125,2.007 0.12515,1.04696 0.2017,1.93002 0.17017,1.96154 -0.0716,0.0716 -2.70974,-2.99649 -2.71107,-3.15275 -0.001,-0.14632 1.59812,-0.75578 2.07974,-0.82359 z m -59.22936,2.09404 c 0.13615,-0.007 0.31038,0.007 0.5443,0.026 0.71991,0.0573 0.83418,0.11248 0.62743,0.30528 -0.13902,0.12963 -0.6618,0.47089 -1.16133,0.75733 l -0.90802,0.52091 0.14029,-0.45076 c 0.28535,-0.91484 0.34891,-1.13657 0.75733,-1.15874 z m -8.02802,2.33826 c 0.20258,-0.007 0.70631,1.2631 2.51363,6.26523 l 1.90828,5.28447 -0.41959,1.42893 c -0.23085,0.78638 -0.44148,1.4565 -0.46895,1.48869 -0.0274,0.0322 -0.11035,-0.91174 -0.18446,-2.09794 -0.0741,-1.18619 -0.17154,-2.15639 -0.21564,-2.15639 -0.0441,0 -0.32315,0.12531 -0.62093,0.27929 l -0.5417,0.28059 -0.19486,-0.70017 c -0.10686,-0.38479 -0.19428,-0.75723 -0.19486,-0.82749 -5.7e-4,-0.0702 -0.0868,-0.35094 -0.19095,-0.62483 -0.18246,-0.47992 -0.20534,-0.48724 -0.64562,-0.19875 -0.25128,0.16464 -0.53643,0.29877 -0.63392,0.29877 -0.0975,0 -0.64278,-0.72848 -1.2107,-1.61989 l -1.03144,-1.62119 0.5495,-0.33515 c 0.30279,-0.18414 0.55078,-0.3763 0.55078,-0.42738 0,-0.0511 -0.41524,-0.30293 -0.92231,-0.55988 l -0.92101,-0.46766 0.28578,-0.84047 c 0.15765,-0.46269 0.36411,-0.8899 0.45857,-0.94829 0.0945,-0.0584 0.63856,-0.009 1.2094,0.10911 0.57082,0.11851 1.07576,0.1791 1.12106,0.1338 0.0453,-0.0453 -0.0113,-0.51988 -0.12601,-1.05481 -0.11486,-0.53493 -0.16546,-1.01666 -0.11172,-1.0704 0.0111,-0.0111 0.0242,-0.0177 0.0377,-0.0182 z m 67.0937,0.40011 c 0.0353,-0.0353 0.50081,0.56448 1.03403,1.3315 0.53324,0.76701 0.94762,1.3926 0.92102,1.39127 -0.0266,-0.001 -0.43715,-0.25582 -0.91193,-0.56638 -0.73023,-0.47765 -0.88136,-0.68167 -0.98466,-1.32762 -0.0671,-0.41997 -0.0937,-0.79346 -0.0585,-0.82877 z m -59.50475,0.56377 c 0.10939,0.0225 0.26084,0.11373 0.49883,0.2832 0.31834,0.22667 0.57937,0.44803 0.57937,0.49233 0,0.0443 -0.33534,0.0805 -0.74565,0.0805 -0.75559,0 -0.91212,-0.19656 -0.57677,-0.72615 0.0676,-0.10673 0.13483,-0.15236 0.24422,-0.12991 z m 50.52195,0.29098 c 0.18484,-0.0424 -0.0153,0.65388 -0.53001,2.66302 -0.28251,1.1027 -0.56501,2.00571 -0.62873,2.00571 -0.0637,0 -0.1728,-0.47968 -0.24161,-1.06521 -0.0688,-0.58553 -0.1681,-1.23569 -0.22084,-1.44582 -0.0695,-0.27689 0.16737,-0.66434 0.85866,-1.40685 0.40318,-0.43306 0.65163,-0.72538 0.76253,-0.75085 z m -63.10308,0.0637 c 0.0119,0.008 0.0191,0.0409 0.0221,0.10132 0.0137,0.27222 0.11243,0.40551 0.25851,0.34944 0.1724,-0.0662 0.21658,0.10832 0.16497,0.64952 -0.0621,0.65129 0.0155,0.82793 0.64173,1.46921 0.3915,0.40093 0.63165,0.72751 0.5339,0.72485 -0.26791,-0.008 -2.95172,-1.11546 -3.13197,-1.29253 -0.0864,-0.0849 0.13544,-0.25071 0.49364,-0.36892 0.57517,-0.18983 0.67225,-0.31746 0.83397,-1.09249 0.0755,-0.36202 0.14737,-0.56434 0.18316,-0.5404 z m 70.84401,2.73966 c 0.11433,0 1.56404,0.96925 1.56404,1.04572 0,0.0351 -0.21622,-0.0182 -0.47935,-0.11821 -0.26311,-0.10004 -0.55342,-0.18187 -0.64562,-0.18187 -0.0922,0 -0.38029,0.31346 -0.64042,0.69628 -0.26014,0.38284 -0.47284,0.60825 -0.47284,0.50013 0,-0.27751 0.57781,-1.94205 0.67419,-1.94205 z m -72.20279,0.37282 c 0.6973,0 1.94912,0.53471 2.25902,0.96518 0.10105,0.14038 0.13567,1.09175 0.0805,2.20576 -0.10947,2.21328 -0.31388,2.09042 -0.49752,-0.29878 -0.13366,-1.73884 -0.0915,-1.69263 -1.65108,-1.79656 -0.66057,-0.044 -0.75311,-0.10834 -0.80539,-0.56248 -0.0547,-0.47564 -0.009,-0.51312 0.61444,-0.51312 z m 56.17923,0.37282 c 0.54233,0 0.60433,0.0443 0.44947,0.32606 -0.0987,0.17951 -0.30082,0.48944 -0.44947,0.68849 -0.26067,0.34906 -0.28138,0.34196 -0.56637,-0.20915 -0.35202,-0.68073 -0.26464,-0.8054 0.56637,-0.8054 z m 4.32058,0.41569 c 0.0313,-0.004 0.0782,0.009 0.14159,0.0338 0.15762,0.0605 0.41498,0.11041 0.57158,0.11041 0.21698,0 0.25502,0.12227 0.15848,0.51312 -0.20746,0.84005 -0.39504,0.84957 -0.71447,0.0364 -0.20057,-0.51064 -0.25115,-0.68154 -0.15718,-0.69369 z m -4.696,2.47856 c 0.0345,0.002 0.0772,0.0293 0.1312,0.074 0.14283,0.11854 0.36559,0.47105 0.49493,0.78332 0.22123,0.53408 0.19851,0.60213 -0.37671,1.15873 -0.59771,0.57836 -0.60904,0.58175 -0.49753,0.12601 0.0627,-0.25645 0.11558,-0.87588 0.11691,-1.37568 0.002,-0.56644 0.0276,-0.77366 0.1312,-0.76642 z m -52.12106,2.10703 c 0.11462,0.0112 0.20014,0.21427 0.38842,0.72226 0.17588,0.47456 0.29816,0.88151 0.27149,0.90412 -0.1143,0.0969 -1.25677,-0.77059 -1.25876,-0.95608 -0.001,-0.11233 0.14838,-0.34125 0.33255,-0.50793 0.11829,-0.10704 0.19754,-0.16913 0.2663,-0.16237 z m -18.43066,1.34579 0.43388,0.4066 c 0.31762,0.29839 0.36909,0.43991 0.19485,0.5313 -0.13067,0.0685 -0.45719,0.17784 -0.72616,0.24162 l -0.48843,0.11562 0.29358,-0.64822 z m 79.05908,0.32996 c 0.15726,-0.0164 0.34747,0.10916 0.76903,0.42348 l 0.73266,0.54689 -0.73266,-0.0221 c -1.39429,-0.0412 -1.65716,-0.23393 -1.05871,-0.77552 0.11269,-0.10199 0.19533,-0.16295 0.28968,-0.17277 z m -41.95484,1.25486 -0.126,0.62613 c -0.069,0.34483 -0.12471,0.73415 -0.12471,0.86516 0,0.13101 -0.26541,0.33036 -0.58845,0.44297 -0.90251,0.31462 -1.31315,0.24257 -2.0226,-0.35464 -0.7472,-0.62897 -0.71052,-0.66167 0.33645,-0.29228 l 0.75733,0.2676 0.88465,-0.77812 z m 71.59615,0.47025 c 0.0756,-0.005 -0.0459,0.36849 -0.2702,0.83008 -0.44856,0.92326 -0.54575,0.96186 -1.34839,0.52741 l -0.54949,-0.29748 1.01584,-0.52611 c 0.55856,-0.28912 1.07665,-0.52924 1.15224,-0.5339 z m -63.76817,0.16758 0.45466,0.42478 c 0.40512,0.37766 0.44335,0.53016 0.34424,1.38607 -0.0613,0.52897 -0.17486,1.13171 -0.25201,1.3393 -0.13539,0.36425 -0.16599,0.35758 -0.88594,-0.17927 -0.41031,-0.30596 -0.81708,-0.62633 -0.90283,-0.71187 -0.0858,-0.0855 0.15891,-0.62832 0.543,-1.2068 z m 30.88448,3.55415 c 0.0597,2e-4 0.28914,0.46097 0.51052,1.02493 0.22136,0.56397 0.34811,1.01916 0.28059,1.01065 -0.0675,-0.009 -0.3865,-0.17941 -0.70927,-0.37932 -0.55658,-0.34471 -0.57669,-0.39718 -0.38841,-1.01064 0.10919,-0.35578 0.24684,-0.64581 0.30657,-0.64562 z"
       id="path14419"
       inkscape:connector-curvature="0" />
  </g>
</svg>
