<?xml version="1.0" encoding="UTF-8" standalone="no"?>
<!-- Created with matplotlib (https://matplotlib.org/) -->

<svg
   xmlns:dc="http://purl.org/dc/elements/1.1/"
   xmlns:cc="http://creativecommons.org/ns#"
   xmlns:rdf="http://www.w3.org/1999/02/22-rdf-syntax-ns#"
   xmlns:svg="http://www.w3.org/2000/svg"
   xmlns="http://www.w3.org/2000/svg"
   xmlns:sodipodi="http://sodipodi.sourceforge.net/DTD/sodipodi-0.dtd"
   xmlns:inkscape="http://www.inkscape.org/namespaces/inkscape"
   height="374.173228pt"
   version="1.1"
   viewBox="0 0 374.173228 374.173228"
   width="374.173228pt"
   id="svg427"
   sodipodi:docname="graph.svg"
   inkscape:version="0.92.5 (2060ec1f9f, 2020-04-08)"
   inkscape:export-filename="/home/bcrowell/Documents/blog/climb_factor/graph.png"
   inkscape:export-xdpi="119.94241"
   inkscape:export-ydpi="119.94241">
  <metadata
     id="metadata431">
    <rdf:RDF>
      <cc:Work
         rdf:about="">
        <dc:format>image/svg+xml</dc:format>
        <dc:type
           rdf:resource="http://purl.org/dc/dcmitype/StillImage" />
      </cc:Work>
    </rdf:RDF>
  </metadata>
  <sodipodi:namedview
     pagecolor="#ffffff"
     bordercolor="#666666"
     borderopacity="1"
     objecttolerance="10"
     gridtolerance="10"
     guidetolerance="10"
     inkscape:pageopacity="0"
     inkscape:pageshadow="2"
     inkscape:window-width="1280"
     inkscape:window-height="998"
     id="namedview429"
     showgrid="false"
     showguides="false"
     inkscape:zoom="2.2681566"
     inkscape:cx="111.94526"
     inkscape:cy="311.53708"
     inkscape:window-x="0"
     inkscape:window-y="0"
     inkscape:window-maximized="1"
     inkscape:current-layer="svg427"
     inkscape:snap-global="false" />
  <defs
     id="defs4">
    <style
       type="text/css"
       id="style2">
*{stroke-linecap:butt;stroke-linejoin:round;}
  </style>
  </defs>
  <path
     style="opacity:1;vector-effect:none;fill:none;fill-opacity:1;stroke:#f18c8c;stroke-width:5.00000024;stroke-linecap:butt;stroke-linejoin:miter;stroke-miterlimit:4;stroke-dasharray:none;stroke-dashoffset:0;stroke-opacity:1"
     d="m 57.535712,207.51807 h 73.738298 c 0,0 16.64542,-11.77275 29.42919,-27.11453 11.14069,-13.36993 27.77586,-42.98646 40.01046,-65.80234 12.23461,-22.81588 29.42919,-57.866375 29.42919,-57.866375 v 0"
     id="path887"
     inkscape:connector-curvature="0"
     sodipodi:nodetypes="ccsscc" />
  <g
     id="g2027">
    <path
       transform="matrix(0.66317442,0,0,0.66317442,15.619159,14.989003)"
       clip-path="url(#pf7bd874d27)"
       d="m 59.952756,284.74142 3.336988,1.27983 3.336988,1.26699 3.336988,1.25267 3.336988,1.23663 3.336988,1.21861 3.336988,1.1983 3.336987,1.17531 3.336988,1.14925 3.336988,1.1196 3.336988,1.08581 3.336988,1.0472 3.336988,1.00305 3.336989,0.95249 3.33699,0.89465 3.33699,0.82849 3.33698,0.75301 3.33699,0.66718 3.33699,0.57004 3.33699,0.46079 3.33699,0.3389 3.33698,0.20419 3.33699,0.0569 3.33699,-0.102 3.33699,-0.27133 3.33698,-0.44926 3.33699,-0.63365 3.33699,-0.82224 3.33699,-1.01276 3.33699,-1.20319 3.33698,-1.39181 3.33699,-1.57725 3.33699,-1.75852 3.33699,-1.93493 3.33699,-2.10597 3.33698,-2.27126 3.33699,-2.43036 3.33699,-2.58253 3.33699,-2.7266 3.33699,-2.86006 3.33698,-2.97624 3.33699,-3.07645 3.33699,-3.21405 3.33699,-3.37092 3.33698,-3.53775 3.33699,-3.71012 3.33699,-3.88491 3.33699,-4.05971 3.33699,-4.23251 3.33699,-4.40168 3.33698,-4.56588 3.33699,-4.72411 3.33699,-4.87554 3.33699,-5.01969 3.33698,-5.1562 3.33699,-5.28492 3.33699,-5.40588 3.33699,-5.51918 3.33699,-5.62505 3.33698,-5.72376 3.33699,-5.81566 3.33699,-5.90109 3.33699,-5.98045 3.33699,-6.05413 3.33698,-6.1225 3.33699,-6.18592 3.33699,-6.24477 3.33699,-6.2994 3.33699,-6.35009 3.33698,-6.39719 3.33699,-6.44094 3.33699,-6.48163 3.33699,-6.51949 3.33699,-6.55475 3.33698,-6.587607 3.33699,-6.618251 3.33699,-6.646858 3.33699,-6.673589 3.33698,-6.698584 3.33699,-6.721981"
       style="fill:none;stroke:#000000;stroke-linecap:square;stroke-linejoin:round;stroke-width:1.507899;stroke-miterlimit:4;stroke-dasharray:none"
       id="path402"
       inkscape:connector-curvature="0" />
  </g>
  <g
     id="g2031">
    <path
       transform="matrix(0.66317442,0,0,0.66317442,15.619159,14.989003)"
       clip-path="url(#pf7bd874d27)"
       d="m 59.952756,275.3914 h 3.336988 3.336988 3.336988 3.336988 3.336988 3.336988 3.336987 3.336988 3.336988 3.336988 3.336988 3.336988 3.336989 3.33699 3.33699 3.33698 3.33699 3.33699 3.33699 3.33699 3.33698 3.33699 3.33699 3.33699 3.33698 3.33699 3.33699 3.33699 3.33699 3.33698 3.33699 3.33699 3.33699 3.33699 3.33698 3.33699 3.33699 3.33699 3.33699 3.33698 l 3.33699,-3.45737 3.33699,-3.45736 3.33699,-3.45737 3.33698,-3.45737 3.33699,-3.45736 3.33699,-3.45737 3.33699,-3.45737 3.33699,-3.45736 3.33699,-3.45737 3.33698,-3.45737 3.33699,-3.45736 3.33699,-3.45737 3.33699,-3.45737 3.33698,-3.45736 3.33699,-3.45737 3.33699,-3.45737 3.33699,-3.45736 3.33699,-3.45737 3.33698,-3.45736 3.33699,-3.45737 3.33699,-3.45737 3.33699,-3.45736 3.33699,-3.45737 3.33698,-3.45737 3.33699,-3.45736 3.33699,-3.45737 3.33699,-3.45737 3.33699,-3.45736 3.33698,-3.45737 3.33699,-3.45737 3.33699,-3.45736 3.33699,-3.45737 3.33699,-3.45737 3.33698,-3.45736 3.33699,-3.45737 3.33699,-3.45736 3.33699,-3.45737 3.33698,-3.45737 3.33699,-3.45736"
       style="fill:none;stroke:#000000;stroke-linecap:butt;stroke-linejoin:round;stroke-dasharray:9.04739403,3.01579801;stroke-dashoffset:0;stroke-width:1.507899;stroke-miterlimit:4"
       id="path405"
       inkscape:connector-curvature="0" />
  </g>
  <g
     id="patch_3"
     style="stroke-linecap:butt;stroke-linejoin:round"
     transform="matrix(0.66317442,0,0,0.66317442,11.640112,14.989003)">
    <path
       d="M 52.771654,326.02938 V 44.900787"
       style="fill:none;stroke:#000000;stroke-width:0.80000001;stroke-linecap:square;stroke-linejoin:miter"
       id="path408"
       inkscape:connector-curvature="0"
       sodipodi:nodetypes="cc" />
  </g>
  <g
     id="patch_4"
     style="stroke-linecap:butt;stroke-linejoin:round"
     transform="matrix(0.66317442,0,0,0.66317442,15.619159,14.989003)">
    <path
       d="M 336.75591,327.01417 V 44.900787"
       style="fill:none;stroke:#000000;stroke-width:0.80000001;stroke-linecap:square;stroke-linejoin:miter"
       id="path411"
       inkscape:connector-curvature="0"
       sodipodi:nodetypes="cc" />
  </g>
  <g
     id="patch_5"
     style="stroke-linecap:butt;stroke-linejoin:round"
     transform="matrix(0.66317442,0,0,0.66317442,15.619159,11.009957)">
    <path
       d="M 46.771654,333.01417 H 336.75591"
       style="fill:none;stroke:#000000;stroke-width:0.80000001;stroke-linecap:square;stroke-linejoin:miter"
       id="path414"
       inkscape:connector-curvature="0" />
  </g>
  <g
     id="patch_6"
     style="stroke-linecap:butt;stroke-linejoin:round"
     transform="matrix(0.66317442,0,0,0.66317442,15.619159,14.989003)">
    <path
       d="M 46.771654,44.900787 H 336.75591"
       style="fill:none;stroke:#000000;stroke-width:0.80000001;stroke-linecap:square;stroke-linejoin:miter"
       id="path417"
       inkscape:connector-curvature="0" />
  </g>
  <defs
     id="defs425">
    <clipPath
       id="pf7bd874d27">
      <rect
         height="288.113386"
         width="289.984252"
         x="46.771654"
         y="44.900787"
         id="rect422" />
    </clipPath>
  </defs>
  <text
     xml:space="preserve"
     style="font-style:normal;font-variant:normal;font-weight:normal;font-stretch:normal;font-size:11.00000095px;line-height:125%;font-family:'Liberation Sans';-inkscape-font-specification:'Liberation Sans';font-variant-ligatures:normal;font-variant-position:normal;font-variant-caps:normal;font-variant-numeric:normal;font-variant-alternates:normal;font-feature-settings:normal;text-indent:0;text-align:start;text-decoration:none;text-decoration-line:none;text-decoration-style:solid;text-decoration-color:#000000;letter-spacing:0px;word-spacing:0px;text-transform:none;writing-mode:lr-tb;direction:ltr;text-orientation:mixed;dominant-baseline:auto;baseline-shift:baseline;text-anchor:start;white-space:normal;shape-padding:0;opacity:1;vector-effect:none;fill:#000000;fill-opacity:1;stroke:none;stroke-width:1px;stroke-linecap:butt;stroke-linejoin:miter;stroke-miterlimit:4;stroke-dasharray:none;stroke-dashoffset:0;stroke-opacity:1;marker:none;marker-start:none;marker-mid:none;marker-end:none"
     x="-179.28261"
     y="39.299702"
     id="text2035"
     transform="rotate(-90)"><tspan
       sodipodi:role="line"
       id="tspan2033"
       style="stroke-width:1px;stroke-linecap:butt;stroke-linejoin:round"
       x="-179.28261"
       y="39.299702">cost of running</tspan></text>
  <path
     style="opacity:1;vector-effect:none;fill:none;fill-opacity:1;stroke:#000000;stroke-width:1.00000005;stroke-linecap:butt;stroke-linejoin:miter;stroke-miterlimit:4;stroke-dasharray:1.00000005,1.00000005;stroke-dashoffset:0;stroke-opacity:1"
     d="m 64.681928,206.90383 66.924442,0"
     id="path858"
     inkscape:connector-curvature="0"
     sodipodi:nodetypes="cc" />
  <text
     xml:space="preserve"
     style="font-style:normal;font-variant:normal;font-weight:normal;font-stretch:normal;font-size:10px;line-height:100%;font-family:'Liberation Sans';-inkscape-font-specification:'Liberation Sans';font-variant-ligatures:normal;font-variant-position:normal;font-variant-caps:normal;font-variant-numeric:normal;font-variant-alternates:normal;font-feature-settings:normal;text-indent:0;text-align:start;text-decoration:none;text-decoration-line:none;text-decoration-style:solid;text-decoration-color:#000000;letter-spacing:0px;word-spacing:0px;text-transform:none;writing-mode:lr-tb;direction:ltr;text-orientation:mixed;dominant-baseline:auto;baseline-shift:baseline;text-anchor:start;white-space:normal;shape-padding:0;opacity:1;vector-effect:none;fill:#000000;fill-opacity:1;stroke:none;stroke-width:0.80000001px;stroke-linecap:butt;stroke-linejoin:miter;stroke-miterlimit:4;stroke-dasharray:none;stroke-dashoffset:0;stroke-opacity:1"
     x="136.23398"
     y="245.92325"
     id="text877"><tspan
       sodipodi:role="line"
       id="tspan875"
       style="stroke-width:0.80000001px;stroke-linecap:butt;stroke-linejoin:round"
       x="136.23398"
       y="245.92325">flat</tspan></text>
  <text
     xml:space="preserve"
     style="font-style:normal;font-variant:normal;font-weight:normal;font-stretch:normal;font-size:10px;line-height:100%;font-family:'Liberation Sans';-inkscape-font-specification:'Liberation Sans';font-variant-ligatures:normal;font-variant-position:normal;font-variant-caps:normal;font-variant-numeric:normal;font-variant-alternates:normal;font-feature-settings:normal;text-indent:0;text-align:start;text-decoration:none;text-decoration-line:none;text-decoration-style:solid;text-decoration-color:#000000;letter-spacing:0px;word-spacing:0px;text-transform:none;writing-mode:lr-tb;direction:ltr;text-orientation:mixed;dominant-baseline:auto;baseline-shift:baseline;text-anchor:start;white-space:normal;shape-padding:0;opacity:1;vector-effect:none;fill:#000000;fill-opacity:1;stroke:none;stroke-width:0.80000001px;stroke-linecap:butt;stroke-linejoin:miter;stroke-miterlimit:4;stroke-dasharray:none;stroke-dashoffset:0;stroke-opacity:1"
     x="183.18842"
     y="245.92325"
     id="text881"><tspan
       sodipodi:role="line"
       id="tspan879"
       style="stroke-width:0.80000001px;stroke-linecap:butt;stroke-linejoin:round"
       x="183.18842"
       y="245.92325">uphill</tspan></text>
  <text
     xml:space="preserve"
     style="font-style:normal;font-variant:normal;font-weight:normal;font-stretch:normal;font-size:10px;line-height:100%;font-family:'Liberation Sans';-inkscape-font-specification:'Liberation Sans';font-variant-ligatures:normal;font-variant-position:normal;font-variant-caps:normal;font-variant-numeric:normal;font-variant-alternates:normal;font-feature-settings:normal;text-indent:0;text-align:start;text-decoration:none;text-decoration-line:none;text-decoration-style:solid;text-decoration-color:#000000;letter-spacing:0px;word-spacing:0px;text-transform:none;writing-mode:lr-tb;direction:ltr;text-orientation:mixed;dominant-baseline:auto;baseline-shift:baseline;text-anchor:start;white-space:normal;shape-padding:0;opacity:1;vector-effect:none;fill:#000000;fill-opacity:1;stroke:none;stroke-width:0.80000001px;stroke-linecap:butt;stroke-linejoin:miter;stroke-miterlimit:4;stroke-dasharray:none;stroke-dashoffset:0;stroke-opacity:1"
     x="66.133003"
     y="245.92325"
     id="text885"><tspan
       sodipodi:role="line"
       id="tspan883"
       style="stroke-width:0.80000001px;stroke-linecap:butt;stroke-linejoin:round"
       x="66.133003"
       y="245.92325">downhill</tspan></text>
</svg>
